<mxfile host="app.diagrams.net" agent="Mozilla/5.0 (Macintosh; Intel Mac OS X 10.15; rv:136.0) Gecko/20100101 Firefox/136.0" version="26.2.3">
  <diagram name="Page-1" id="xKhlsxAtRhAonfhplPug">
    <mxGraphModel dx="985" dy="553" grid="1" gridSize="10" guides="1" tooltips="1" connect="1" arrows="1" fold="1" page="1" pageScale="1" pageWidth="1920" pageHeight="1200" math="0" shadow="0">
      <root>
        <mxCell id="0" />
        <mxCell id="1" parent="0" />
        <mxCell id="7oALAdZeU_FU_1aG247g-9" value="" style="rounded=1;whiteSpace=wrap;html=1;absoluteArcSize=1;strokeWidth=2;fillColor=none;strokeColor=#2F75B6;" vertex="1" parent="1">
          <mxGeometry x="500" y="180" width="240" height="110" as="geometry" />
        </mxCell>
        <mxCell id="7oALAdZeU_FU_1aG247g-2" value="" style="rounded=1;whiteSpace=wrap;html=1;absoluteArcSize=1;strokeWidth=2;strokeColor=#C3ABD0;expand=1;resizable=1;fillColor=none;" vertex="1" parent="1">
          <mxGeometry x="480" y="81" width="310" height="85" as="geometry" />
        </mxCell>
        <mxCell id="vIwmV1KeTdYrx_ldE85M-15" value="" style="edgeStyle=orthogonalEdgeStyle;rounded=0;orthogonalLoop=1;jettySize=auto;html=1;" parent="1" source="vIwmV1KeTdYrx_ldE85M-1" target="vIwmV1KeTdYrx_ldE85M-14" edge="1">
          <mxGeometry relative="1" as="geometry">
            <Array as="points">
              <mxPoint x="460" y="300" />
              <mxPoint x="460" y="410" />
            </Array>
          </mxGeometry>
        </mxCell>
        <mxCell id="vIwmV1KeTdYrx_ldE85M-1" value="&lt;p align=&quot;left&quot; id=&quot;docs-internal-guid-2ff7460e-7fff-f5c0-583b-2fa1f68761b8&quot; style=&quot;line-height:1.2;margin-top:0pt;margin-bottom:0pt;&quot; dir=&quot;ltr&quot;&gt;&lt;span style=&quot;font-size: 9pt; font-family: &amp;quot;Courier New&amp;quot;, monospace; color: rgb(0, 0, 0); background-color: transparent; font-weight: 400; font-style: normal; font-variant: normal; text-decoration: none; vertical-align: baseline; white-space: pre-wrap;&quot;&gt;&quot;nodes&quot;: [&lt;/span&gt;&lt;/p&gt;&lt;p align=&quot;left&quot; style=&quot;line-height:1.2;margin-top:0pt;margin-bottom:0pt;&quot; dir=&quot;ltr&quot;&gt;&lt;span style=&quot;font-size: 9pt; font-family: &amp;quot;Courier New&amp;quot;, monospace; color: rgb(0, 0, 0); background-color: transparent; font-weight: 400; font-style: normal; font-variant: normal; text-decoration: none; vertical-align: baseline; white-space: pre-wrap;&quot;&gt;&amp;nbsp;&amp;nbsp;&amp;nbsp;&amp;nbsp;&lt;/span&gt;&lt;span style=&quot;font-size: 9pt; font-family: &amp;quot;Courier New&amp;quot;, monospace; color: rgb(0, 0, 0); background-color: transparent; font-weight: 400; font-style: normal; font-variant: normal; text-decoration: none; vertical-align: baseline; white-space: pre-wrap;&quot;&gt;&lt;span style=&quot;white-space:pre;&quot; class=&quot;Apple-tab-span&quot;&gt;&#x9;&lt;/span&gt;&lt;/span&gt;&lt;span style=&quot;font-size: 9pt; font-family: &amp;quot;Courier New&amp;quot;, monospace; color: rgb(0, 0, 0); background-color: transparent; font-weight: 400; font-style: normal; font-variant: normal; text-decoration: none; vertical-align: baseline; white-space: pre-wrap;&quot;&gt;...&lt;/span&gt;&lt;/p&gt;&lt;p align=&quot;left&quot; style=&quot;line-height:1.2;margin-top:0pt;margin-bottom:0pt;&quot; dir=&quot;ltr&quot;&gt;&lt;span style=&quot;font-size: 9pt; font-family: &amp;quot;Courier New&amp;quot;, monospace; color: rgb(0, 0, 0); background-color: transparent; font-weight: 400; font-style: normal; font-variant: normal; text-decoration: none; vertical-align: baseline; white-space: pre-wrap;&quot;&gt;&amp;nbsp;&amp;nbsp;&amp;nbsp;&amp;nbsp;&lt;/span&gt;&lt;span style=&quot;font-size: 9pt; font-family: &amp;quot;Courier New&amp;quot;, monospace; color: rgb(0, 0, 0); background-color: transparent; font-weight: 400; font-style: normal; font-variant: normal; text-decoration: none; vertical-align: baseline; white-space: pre-wrap;&quot;&gt;&lt;span style=&quot;white-space:pre;&quot; class=&quot;Apple-tab-span&quot;&gt;&#x9;&lt;/span&gt;&lt;/span&gt;&lt;span style=&quot;font-size: 9pt; font-family: &amp;quot;Courier New&amp;quot;, monospace; color: rgb(0, 0, 0); background-color: transparent; font-weight: 400; font-style: normal; font-variant: normal; text-decoration: none; vertical-align: baseline; white-space: pre-wrap;&quot;&gt;{&lt;/span&gt;&lt;/p&gt;&lt;p align=&quot;left&quot; style=&quot;line-height:1.2;margin-top:0pt;margin-bottom:0pt;&quot; dir=&quot;ltr&quot;&gt;&lt;span style=&quot;font-size: 9pt; font-family: &amp;quot;Courier New&amp;quot;, monospace; color: rgb(0, 0, 0); background-color: transparent; font-weight: 400; font-style: normal; font-variant: normal; text-decoration: none; vertical-align: baseline; white-space: pre-wrap;&quot;&gt;&amp;nbsp;&amp;nbsp;&amp;nbsp;&amp;nbsp;&amp;nbsp;&amp;nbsp;&amp;nbsp;&amp;nbsp;&lt;/span&gt;&lt;span style=&quot;font-size: 9pt; font-family: &amp;quot;Courier New&amp;quot;, monospace; color: rgb(0, 0, 0); background-color: transparent; font-weight: 400; font-style: normal; font-variant: normal; text-decoration: none; vertical-align: baseline; white-space: pre-wrap;&quot;&gt;&lt;span style=&quot;white-space:pre;&quot; class=&quot;Apple-tab-span&quot;&gt;&#x9;&lt;/span&gt;&lt;/span&gt;&lt;span style=&quot;font-size: 9pt; font-family: &amp;quot;Courier New&amp;quot;, monospace; color: rgb(0, 0, 0); background-color: transparent; font-weight: 400; font-style: normal; font-variant: normal; text-decoration: none; vertical-align: baseline; white-space: pre-wrap;&quot;&gt;&quot;node&quot;: &quot;Authors&quot;,&lt;/span&gt;&lt;/p&gt;&lt;p align=&quot;left&quot; style=&quot;line-height:1.2;margin-top:0pt;margin-bottom:0pt;&quot; dir=&quot;ltr&quot;&gt;&lt;span style=&quot;font-size: 9pt; font-family: &amp;quot;Courier New&amp;quot;, monospace; color: rgb(0, 0, 0); background-color: transparent; font-weight: 400; font-style: normal; font-variant: normal; text-decoration: none; vertical-align: baseline; white-space: pre-wrap;&quot;&gt;&amp;nbsp;&amp;nbsp;&amp;nbsp;&amp;nbsp;&amp;nbsp;&amp;nbsp;&amp;nbsp;&amp;nbsp;&lt;/span&gt;&lt;span style=&quot;font-size: 9pt; font-family: &amp;quot;Courier New&amp;quot;, monospace; color: rgb(0, 0, 0); background-color: transparent; font-weight: 400; font-style: normal; font-variant: normal; text-decoration: none; vertical-align: baseline; white-space: pre-wrap;&quot;&gt;&lt;span style=&quot;white-space:pre;&quot; class=&quot;Apple-tab-span&quot;&gt;&#x9;&lt;/span&gt;&lt;/span&gt;&lt;span style=&quot;font-size: 9pt; font-family: &amp;quot;Courier New&amp;quot;, monospace; color: rgb(0, 0, 0); background-color: transparent; font-weight: 400; font-style: normal; font-variant: normal; text-decoration: none; vertical-align: baseline; white-space: pre-wrap;&quot;&gt;&quot;example&quot;: [&lt;/span&gt;&lt;/p&gt;&lt;p align=&quot;left&quot; style=&quot;line-height:1.2;margin-top:0pt;margin-bottom:0pt;&quot; dir=&quot;ltr&quot;&gt;&lt;span style=&quot;font-size: 9pt; font-family: &amp;quot;Courier New&amp;quot;, monospace; color: rgb(0, 0, 0); background-color: transparent; font-weight: 400; font-style: normal; font-variant: normal; text-decoration: none; vertical-align: baseline; white-space: pre-wrap;&quot;&gt;&amp;nbsp;&amp;nbsp;&amp;nbsp;&amp;nbsp;&amp;nbsp;&amp;nbsp;&amp;nbsp;&amp;nbsp;&amp;nbsp;&amp;nbsp;&amp;nbsp;&amp;nbsp;&lt;/span&gt;&lt;span style=&quot;font-size: 9pt; font-family: &amp;quot;Courier New&amp;quot;, monospace; color: rgb(0, 0, 0); background-color: transparent; font-weight: 400; font-style: normal; font-variant: normal; text-decoration: none; vertical-align: baseline; white-space: pre-wrap;&quot;&gt;&lt;span style=&quot;white-space:pre;&quot; class=&quot;Apple-tab-span&quot;&gt;&#x9;&lt;/span&gt;&lt;/span&gt;&lt;span style=&quot;font-size: 9pt; font-family: &amp;quot;Courier New&amp;quot;, monospace; color: rgb(0, 0, 0); background-color: transparent; font-weight: 400; font-style: normal; font-variant: normal; text-decoration: none; vertical-align: baseline; white-space: pre-wrap;&quot;&gt;&quot;Sara Alibrandi&quot;,&lt;/span&gt;&lt;/p&gt;&lt;p align=&quot;left&quot; style=&quot;line-height:1.2;margin-top:0pt;margin-bottom:0pt;&quot; dir=&quot;ltr&quot;&gt;&lt;span style=&quot;font-size: 9pt; font-family: &amp;quot;Courier New&amp;quot;, monospace; color: rgb(0, 0, 0); background-color: transparent; font-weight: 400; font-style: normal; font-variant: normal; text-decoration: none; vertical-align: baseline; white-space: pre-wrap;&quot;&gt;&amp;nbsp;&amp;nbsp;&amp;nbsp;&amp;nbsp;&amp;nbsp;&amp;nbsp;&amp;nbsp;&amp;nbsp;&amp;nbsp;&amp;nbsp;&amp;nbsp;&amp;nbsp;&lt;/span&gt;&lt;span style=&quot;font-size: 9pt; font-family: &amp;quot;Courier New&amp;quot;, monospace; color: rgb(0, 0, 0); background-color: transparent; font-weight: 400; font-style: normal; font-variant: normal; text-decoration: none; vertical-align: baseline; white-space: pre-wrap;&quot;&gt;&lt;span style=&quot;white-space:pre;&quot; class=&quot;Apple-tab-span&quot;&gt;&#x9;&lt;/span&gt;&lt;/span&gt;&lt;span style=&quot;font-size: 9pt; font-family: &amp;quot;Courier New&amp;quot;, monospace; color: rgb(0, 0, 0); background-color: transparent; font-weight: 400; font-style: normal; font-variant: normal; text-decoration: none; vertical-align: baseline; white-space: pre-wrap;&quot;&gt;&quot;Angela Clemens&quot;&lt;/span&gt;&lt;/p&gt;&lt;p align=&quot;left&quot; style=&quot;line-height:1.2;margin-top:0pt;margin-bottom:0pt;&quot; dir=&quot;ltr&quot;&gt;&lt;span style=&quot;font-size: 9pt; font-family: &amp;quot;Courier New&amp;quot;, monospace; color: rgb(0, 0, 0); background-color: transparent; font-weight: 400; font-style: normal; font-variant: normal; text-decoration: none; vertical-align: baseline; white-space: pre-wrap;&quot;&gt;&amp;nbsp;&amp;nbsp;&amp;nbsp;&amp;nbsp;&amp;nbsp;&amp;nbsp;&amp;nbsp;&amp;nbsp;&lt;/span&gt;&lt;span style=&quot;font-size: 9pt; font-family: &amp;quot;Courier New&amp;quot;, monospace; color: rgb(0, 0, 0); background-color: transparent; font-weight: 400; font-style: normal; font-variant: normal; text-decoration: none; vertical-align: baseline; white-space: pre-wrap;&quot;&gt;&lt;span style=&quot;white-space:pre;&quot; class=&quot;Apple-tab-span&quot;&gt;&#x9;&lt;/span&gt;&lt;/span&gt;&lt;span style=&quot;font-size: 9pt; font-family: &amp;quot;Courier New&amp;quot;, monospace; color: rgb(0, 0, 0); background-color: transparent; font-weight: 400; font-style: normal; font-variant: normal; text-decoration: none; vertical-align: baseline; white-space: pre-wrap;&quot;&gt;],&lt;/span&gt;&lt;/p&gt;&lt;p align=&quot;left&quot; style=&quot;line-height:1.2;margin-top:0pt;margin-bottom:0pt;&quot; dir=&quot;ltr&quot;&gt;&lt;span style=&quot;font-size: 9pt; font-family: &amp;quot;Courier New&amp;quot;, monospace; color: rgb(0, 0, 0); background-color: transparent; font-weight: 400; font-style: normal; font-variant: normal; text-decoration: none; vertical-align: baseline; white-space: pre-wrap;&quot;&gt;&amp;nbsp;&amp;nbsp;&amp;nbsp;&amp;nbsp;&amp;nbsp;&amp;nbsp;&amp;nbsp;&amp;nbsp;&lt;/span&gt;&lt;span style=&quot;font-size: 9pt; font-family: &amp;quot;Courier New&amp;quot;, monospace; color: rgb(0, 0, 0); background-color: transparent; font-weight: 400; font-style: normal; font-variant: normal; text-decoration: none; vertical-align: baseline; white-space: pre-wrap;&quot;&gt;&lt;span style=&quot;white-space:pre;&quot; class=&quot;Apple-tab-span&quot;&gt;&#x9;&lt;/span&gt;&lt;/span&gt;&lt;span style=&quot;font-size: 9pt; font-family: &amp;quot;Courier New&amp;quot;, monospace; color: rgb(0, 0, 0); background-color: transparent; font-weight: 400; font-style: normal; font-variant: normal; text-decoration: none; vertical-align: baseline; white-space: pre-wrap;&quot;&gt;&quot;display&quot;: [&lt;/span&gt;&lt;/p&gt;&lt;p align=&quot;left&quot; style=&quot;line-height:1.2;margin-top:0pt;margin-bottom:0pt;&quot; dir=&quot;ltr&quot;&gt;&lt;span style=&quot;font-size: 9pt; font-family: &amp;quot;Courier New&amp;quot;, monospace; color: rgb(0, 0, 0); background-color: transparent; font-weight: 400; font-style: normal; font-variant: normal; text-decoration: none; vertical-align: baseline; white-space: pre-wrap;&quot;&gt;&amp;nbsp;&amp;nbsp;&amp;nbsp;&amp;nbsp;&amp;nbsp;&amp;nbsp;&amp;nbsp;&amp;nbsp;&amp;nbsp;&amp;nbsp;&amp;nbsp;&amp;nbsp;&lt;/span&gt;&lt;span style=&quot;font-size: 9pt; font-family: &amp;quot;Courier New&amp;quot;, monospace; color: rgb(0, 0, 0); background-color: transparent; font-weight: 400; font-style: normal; font-variant: normal; text-decoration: none; vertical-align: baseline; white-space: pre-wrap;&quot;&gt;&lt;span style=&quot;white-space:pre;&quot; class=&quot;Apple-tab-span&quot;&gt;&#x9;&lt;/span&gt;&lt;/span&gt;&lt;span style=&quot;font-size: 9pt; font-family: &amp;quot;Courier New&amp;quot;, monospace; color: rgb(0, 0, 0); background-color: transparent; font-weight: 400; font-style: normal; font-variant: normal; text-decoration: none; vertical-align: baseline; white-space: pre-wrap;&quot;&gt;{&lt;/span&gt;&lt;/p&gt;&lt;p align=&quot;left&quot; style=&quot;line-height:1.2;margin-top:0pt;margin-bottom:0pt;&quot; dir=&quot;ltr&quot;&gt;&lt;span style=&quot;font-size: 9pt; font-family: &amp;quot;Courier New&amp;quot;, monospace; color: rgb(0, 0, 0); background-color: transparent; font-weight: 400; font-style: normal; font-variant: normal; text-decoration: none; vertical-align: baseline; white-space: pre-wrap;&quot;&gt;&amp;nbsp;&amp;nbsp;&amp;nbsp;&amp;nbsp;&amp;nbsp;&amp;nbsp;&amp;nbsp;&amp;nbsp;&amp;nbsp;&amp;nbsp;&amp;nbsp;&amp;nbsp;&amp;nbsp;&amp;nbsp;&amp;nbsp;&amp;nbsp;&lt;/span&gt;&lt;span style=&quot;font-size: 9pt; font-family: &amp;quot;Courier New&amp;quot;, monospace; color: rgb(0, 0, 0); background-color: transparent; font-weight: 400; font-style: normal; font-variant: normal; text-decoration: none; vertical-align: baseline; white-space: pre-wrap;&quot;&gt;&lt;span style=&quot;white-space:pre;&quot; class=&quot;Apple-tab-span&quot;&gt;&#x9;&lt;/span&gt;&lt;/span&gt;&lt;span style=&quot;font-size: 9pt; font-family: &amp;quot;Courier New&amp;quot;, monospace; color: rgb(0, 0, 0); background-color: transparent; font-weight: 400; font-style: normal; font-variant: normal; text-decoration: none; vertical-align: baseline; white-space: pre-wrap;&quot;&gt;&quot;label&quot;: &quot;label&quot;,&lt;/span&gt;&lt;/p&gt;&lt;p align=&quot;left&quot; style=&quot;line-height:1.2;margin-top:0pt;margin-bottom:0pt;&quot; dir=&quot;ltr&quot;&gt;&lt;span style=&quot;font-size: 9pt; font-family: &amp;quot;Courier New&amp;quot;, monospace; color: rgb(0, 0, 0); background-color: transparent; font-weight: 400; font-style: normal; font-variant: normal; text-decoration: none; vertical-align: baseline; white-space: pre-wrap;&quot;&gt;&amp;nbsp;&amp;nbsp;&amp;nbsp;&amp;nbsp;&amp;nbsp;&amp;nbsp;&amp;nbsp;&amp;nbsp;&amp;nbsp;&amp;nbsp;&amp;nbsp;&amp;nbsp;&amp;nbsp;&amp;nbsp;&amp;nbsp;&amp;nbsp;&lt;/span&gt;&lt;span style=&quot;font-size: 9pt; font-family: &amp;quot;Courier New&amp;quot;, monospace; color: rgb(0, 0, 0); background-color: transparent; font-weight: 400; font-style: normal; font-variant: normal; text-decoration: none; vertical-align: baseline; white-space: pre-wrap;&quot;&gt;&lt;span style=&quot;white-space:pre;&quot; class=&quot;Apple-tab-span&quot;&gt;&#x9;&lt;/span&gt;&lt;/span&gt;&lt;span style=&quot;font-size: 9pt; font-family: &amp;quot;Courier New&amp;quot;, monospace; color: rgb(0, 0, 0); background-color: transparent; font-weight: 400; font-style: normal; font-variant: normal; text-decoration: none; vertical-align: baseline; white-space: pre-wrap;&quot;&gt;&quot;text&quot;: &quot;${label}&quot;,&lt;/span&gt;&lt;/p&gt;&lt;p align=&quot;left&quot; style=&quot;line-height:1.2;margin-top:0pt;margin-bottom:0pt;&quot; dir=&quot;ltr&quot;&gt;&lt;span style=&quot;font-size: 9pt; font-family: &amp;quot;Courier New&amp;quot;, monospace; color: rgb(0, 0, 0); background-color: transparent; font-weight: 400; font-style: normal; font-variant: normal; text-decoration: none; vertical-align: baseline; white-space: pre-wrap;&quot;&gt;&amp;nbsp;&amp;nbsp;&amp;nbsp;&amp;nbsp;&amp;nbsp;&amp;nbsp;&amp;nbsp;&amp;nbsp;&amp;nbsp;&amp;nbsp;&amp;nbsp;&amp;nbsp;&amp;nbsp;&amp;nbsp;&amp;nbsp;&amp;nbsp;&lt;/span&gt;&lt;span style=&quot;font-size: 9pt; font-family: &amp;quot;Courier New&amp;quot;, monospace; color: rgb(0, 0, 0); background-color: transparent; font-weight: 400; font-style: normal; font-variant: normal; text-decoration: none; vertical-align: baseline; white-space: pre-wrap;&quot;&gt;&lt;span style=&quot;white-space:pre;&quot; class=&quot;Apple-tab-span&quot;&gt;&#x9;&lt;/span&gt;&lt;/span&gt;&lt;span style=&quot;font-size: 9pt; font-family: &amp;quot;Courier New&amp;quot;, monospace; color: rgb(0, 0, 0); background-color: transparent; font-weight: 400; font-style: normal; font-variant: normal; text-decoration: none; vertical-align: baseline; white-space: pre-wrap;&quot;&gt;&quot;type&quot;: &quot;text&quot;&lt;/span&gt;&lt;/p&gt;&lt;p align=&quot;left&quot; style=&quot;line-height:1.2;margin-top:0pt;margin-bottom:0pt;&quot; dir=&quot;ltr&quot;&gt;&lt;span style=&quot;font-size: 9pt; font-family: &amp;quot;Courier New&amp;quot;, monospace; color: rgb(0, 0, 0); background-color: transparent; font-weight: 400; font-style: normal; font-variant: normal; text-decoration: none; vertical-align: baseline; white-space: pre-wrap;&quot;&gt;&amp;nbsp;&amp;nbsp;&amp;nbsp;&amp;nbsp;&amp;nbsp;&amp;nbsp;&amp;nbsp;&amp;nbsp;&amp;nbsp;&amp;nbsp;&amp;nbsp;&amp;nbsp;&lt;/span&gt;&lt;span style=&quot;font-size: 9pt; font-family: &amp;quot;Courier New&amp;quot;, monospace; color: rgb(0, 0, 0); background-color: transparent; font-weight: 400; font-style: normal; font-variant: normal; text-decoration: none; vertical-align: baseline; white-space: pre-wrap;&quot;&gt;&lt;span style=&quot;white-space:pre;&quot; class=&quot;Apple-tab-span&quot;&gt;&#x9;&lt;/span&gt;&lt;/span&gt;&lt;span style=&quot;font-size: 9pt; font-family: &amp;quot;Courier New&amp;quot;, monospace; color: rgb(0, 0, 0); background-color: transparent; font-weight: 400; font-style: normal; font-variant: normal; text-decoration: none; vertical-align: baseline; white-space: pre-wrap;&quot;&gt;},&lt;/span&gt;&lt;/p&gt;&lt;p align=&quot;left&quot; style=&quot;line-height:1.2;margin-top:0pt;margin-bottom:0pt;&quot; dir=&quot;ltr&quot;&gt;&lt;span style=&quot;font-size: 9pt; font-family: &amp;quot;Courier New&amp;quot;, monospace; color: rgb(0, 0, 0); background-color: transparent; font-weight: 400; font-style: normal; font-variant: normal; text-decoration: none; vertical-align: baseline; white-space: pre-wrap;&quot;&gt;&amp;nbsp;&amp;nbsp;&amp;nbsp;&amp;nbsp;&amp;nbsp;&amp;nbsp;&amp;nbsp;&amp;nbsp;&amp;nbsp;&amp;nbsp;&amp;nbsp;&amp;nbsp;&lt;/span&gt;&lt;span style=&quot;font-size: 9pt; font-family: &amp;quot;Courier New&amp;quot;, monospace; color: rgb(0, 0, 0); background-color: transparent; font-weight: 400; font-style: normal; font-variant: normal; text-decoration: none; vertical-align: baseline; white-space: pre-wrap;&quot;&gt;&lt;span style=&quot;white-space:pre;&quot; class=&quot;Apple-tab-span&quot;&gt;&#x9;&lt;/span&gt;&lt;/span&gt;&lt;span style=&quot;font-size: 9pt; font-family: &amp;quot;Courier New&amp;quot;, monospace; color: rgb(0, 0, 0); background-color: transparent; font-weight: 400; font-style: normal; font-variant: normal; text-decoration: none; vertical-align: baseline; white-space: pre-wrap;&quot;&gt;{&lt;/span&gt;&lt;/p&gt;&lt;p align=&quot;left&quot; style=&quot;line-height:1.2;margin-top:0pt;margin-bottom:0pt;&quot; dir=&quot;ltr&quot;&gt;&lt;span style=&quot;font-size: 9pt; font-family: &amp;quot;Courier New&amp;quot;, monospace; color: rgb(0, 0, 0); background-color: transparent; font-weight: 400; font-style: normal; font-variant: normal; text-decoration: none; vertical-align: baseline; white-space: pre-wrap;&quot;&gt;&amp;nbsp;&amp;nbsp;&amp;nbsp;&amp;nbsp;&amp;nbsp;&amp;nbsp;&amp;nbsp;&amp;nbsp;&amp;nbsp;&amp;nbsp;&amp;nbsp;&amp;nbsp;&amp;nbsp;&amp;nbsp;&amp;nbsp;&amp;nbsp;&lt;/span&gt;&lt;span style=&quot;font-size: 9pt; font-family: &amp;quot;Courier New&amp;quot;, monospace; color: rgb(0, 0, 0); background-color: transparent; font-weight: 400; font-style: normal; font-variant: normal; text-decoration: none; vertical-align: baseline; white-space: pre-wrap;&quot;&gt;&lt;span style=&quot;white-space:pre;&quot; class=&quot;Apple-tab-span&quot;&gt;&#x9;&lt;/span&gt;&lt;/span&gt;&lt;span style=&quot;font-size: 9pt; font-family: &amp;quot;Courier New&amp;quot;, monospace; color: rgb(0, 0, 0); background-color: transparent; font-weight: 400; font-style: normal; font-variant: normal; text-decoration: none; vertical-align: baseline; white-space: pre-wrap;&quot;&gt;&quot;label&quot;: &quot;Authors ID&quot;,&lt;/span&gt;&lt;/p&gt;&lt;p align=&quot;left&quot; style=&quot;line-height:1.2;margin-top:0pt;margin-bottom:0pt;&quot; dir=&quot;ltr&quot;&gt;&lt;span style=&quot;font-size: 9pt; font-family: &amp;quot;Courier New&amp;quot;, monospace; color: rgb(0, 0, 0); background-color: transparent; font-weight: 400; font-style: normal; font-variant: normal; text-decoration: none; vertical-align: baseline; white-space: pre-wrap;&quot;&gt;&amp;nbsp;&amp;nbsp;&amp;nbsp;&amp;nbsp;&amp;nbsp;&amp;nbsp;&amp;nbsp;&amp;nbsp;&amp;nbsp;&amp;nbsp;&amp;nbsp;&amp;nbsp;&amp;nbsp;&amp;nbsp;&amp;nbsp;&amp;nbsp;&lt;/span&gt;&lt;span style=&quot;font-size: 9pt; font-family: &amp;quot;Courier New&amp;quot;, monospace; color: rgb(0, 0, 0); background-color: transparent; font-weight: 400; font-style: normal; font-variant: normal; text-decoration: none; vertical-align: baseline; white-space: pre-wrap;&quot;&gt;&lt;span style=&quot;white-space:pre;&quot; class=&quot;Apple-tab-span&quot;&gt;&#x9;&lt;/span&gt;&lt;/span&gt;&lt;span style=&quot;font-size: 9pt; font-family: &amp;quot;Courier New&amp;quot;, monospace; color: rgb(0, 0, 0); background-color: transparent; font-weight: 400; font-style: normal; font-variant: normal; text-decoration: none; vertical-align: baseline; white-space: pre-wrap;&quot;&gt;&quot;text&quot;: &quot;${id}&quot;,&lt;/span&gt;&lt;/p&gt;&lt;p align=&quot;left&quot; style=&quot;line-height:1.2;margin-top:0pt;margin-bottom:0pt;&quot; dir=&quot;ltr&quot;&gt;&lt;span style=&quot;font-size: 9pt; font-family: &amp;quot;Courier New&amp;quot;, monospace; color: rgb(0, 0, 0); background-color: transparent; font-weight: 400; font-style: normal; font-variant: normal; text-decoration: none; vertical-align: baseline; white-space: pre-wrap;&quot;&gt;&amp;nbsp;&amp;nbsp;&amp;nbsp;&amp;nbsp;&amp;nbsp;&amp;nbsp;&amp;nbsp;&amp;nbsp;&amp;nbsp;&amp;nbsp;&amp;nbsp;&amp;nbsp;&amp;nbsp;&amp;nbsp;&amp;nbsp;&amp;nbsp;&lt;/span&gt;&lt;span style=&quot;font-size: 9pt; font-family: &amp;quot;Courier New&amp;quot;, monospace; color: rgb(0, 0, 0); background-color: transparent; font-weight: 400; font-style: normal; font-variant: normal; text-decoration: none; vertical-align: baseline; white-space: pre-wrap;&quot;&gt;&lt;span style=&quot;white-space:pre;&quot; class=&quot;Apple-tab-span&quot;&gt;&#x9;&lt;/span&gt;&lt;/span&gt;&lt;span style=&quot;font-size: 9pt; font-family: &amp;quot;Courier New&amp;quot;, monospace; color: rgb(0, 0, 0); background-color: transparent; font-weight: 400; font-style: normal; font-variant: normal; text-decoration: none; vertical-align: baseline; white-space: pre-wrap;&quot;&gt;&quot;type&quot;: &quot;text&quot;&lt;/span&gt;&lt;/p&gt;&lt;p align=&quot;left&quot; style=&quot;line-height:1.2;margin-top:0pt;margin-bottom:0pt;&quot; dir=&quot;ltr&quot;&gt;&lt;span style=&quot;font-size: 9pt; font-family: &amp;quot;Courier New&amp;quot;, monospace; color: rgb(0, 0, 0); background-color: transparent; font-weight: 400; font-style: normal; font-variant: normal; text-decoration: none; vertical-align: baseline; white-space: pre-wrap;&quot;&gt;&amp;nbsp;&amp;nbsp;&amp;nbsp;&amp;nbsp;&amp;nbsp;&amp;nbsp;&amp;nbsp;&amp;nbsp;&amp;nbsp;&amp;nbsp;&amp;nbsp;&amp;nbsp;&lt;/span&gt;&lt;span style=&quot;font-size: 9pt; font-family: &amp;quot;Courier New&amp;quot;, monospace; color: rgb(0, 0, 0); background-color: transparent; font-weight: 400; font-style: normal; font-variant: normal; text-decoration: none; vertical-align: baseline; white-space: pre-wrap;&quot;&gt;&lt;span style=&quot;white-space:pre;&quot; class=&quot;Apple-tab-span&quot;&gt;&#x9;&lt;/span&gt;&lt;/span&gt;&lt;span style=&quot;font-size: 9pt; font-family: &amp;quot;Courier New&amp;quot;, monospace; color: rgb(0, 0, 0); background-color: transparent; font-weight: 400; font-style: normal; font-variant: normal; text-decoration: none; vertical-align: baseline; white-space: pre-wrap;&quot;&gt;}&lt;/span&gt;&lt;/p&gt;&lt;p align=&quot;left&quot; style=&quot;line-height:1.2;margin-top:0pt;margin-bottom:0pt;&quot; dir=&quot;ltr&quot;&gt;&lt;span style=&quot;font-size: 9pt; font-family: &amp;quot;Courier New&amp;quot;, monospace; color: rgb(0, 0, 0); background-color: transparent; font-weight: 400; font-style: normal; font-variant: normal; text-decoration: none; vertical-align: baseline; white-space: pre-wrap;&quot;&gt;&amp;nbsp;&amp;nbsp;&amp;nbsp;&amp;nbsp;&amp;nbsp;&amp;nbsp;&amp;nbsp;&amp;nbsp;&lt;/span&gt;&lt;span style=&quot;font-size: 9pt; font-family: &amp;quot;Courier New&amp;quot;, monospace; color: rgb(0, 0, 0); background-color: transparent; font-weight: 400; font-style: normal; font-variant: normal; text-decoration: none; vertical-align: baseline; white-space: pre-wrap;&quot;&gt;&lt;span style=&quot;white-space:pre;&quot; class=&quot;Apple-tab-span&quot;&gt;&#x9;&lt;/span&gt;&lt;/span&gt;&lt;span style=&quot;font-size: 9pt; font-family: &amp;quot;Courier New&amp;quot;, monospace; color: rgb(0, 0, 0); background-color: transparent; font-weight: 400; font-style: normal; font-variant: normal; text-decoration: none; vertical-align: baseline; white-space: pre-wrap;&quot;&gt;],&lt;/span&gt;&lt;/p&gt;&lt;p align=&quot;left&quot; style=&quot;line-height:1.2;margin-top:0pt;margin-bottom:0pt;&quot; dir=&quot;ltr&quot;&gt;&lt;span style=&quot;font-size: 9pt; font-family: &amp;quot;Courier New&amp;quot;, monospace; color: rgb(0, 0, 0); background-color: transparent; font-weight: 400; font-style: normal; font-variant: normal; text-decoration: none; vertical-align: baseline; white-space: pre-wrap;&quot;&gt;&amp;nbsp;&amp;nbsp;&amp;nbsp;&amp;nbsp;&amp;nbsp;&amp;nbsp;&amp;nbsp;&amp;nbsp;&lt;/span&gt;&lt;span style=&quot;font-size: 9pt; font-family: &amp;quot;Courier New&amp;quot;, monospace; color: rgb(0, 0, 0); background-color: transparent; font-weight: 400; font-style: normal; font-variant: normal; text-decoration: none; vertical-align: baseline; white-space: pre-wrap;&quot;&gt;&lt;span style=&quot;white-space:pre;&quot; class=&quot;Apple-tab-span&quot;&gt;&#x9;&lt;/span&gt;&lt;/span&gt;&lt;span style=&quot;font-size: 9pt; font-family: &amp;quot;Courier New&amp;quot;, monospace; color: rgb(0, 0, 0); background-color: transparent; font-weight: 400; font-style: normal; font-variant: normal; text-decoration: none; vertical-align: baseline; white-space: pre-wrap;&quot;&gt;&quot;relation&quot;: [],&lt;/span&gt;&lt;/p&gt;&lt;p align=&quot;left&quot; style=&quot;line-height:1.2;margin-top:0pt;margin-bottom:0pt;&quot; dir=&quot;ltr&quot;&gt;&lt;span style=&quot;font-size: 9pt; font-family: &amp;quot;Courier New&amp;quot;, monospace; color: rgb(0, 0, 0); background-color: transparent; font-weight: 400; font-style: normal; font-variant: normal; text-decoration: none; vertical-align: baseline; white-space: pre-wrap;&quot;&gt;&amp;nbsp;&amp;nbsp;&amp;nbsp;&amp;nbsp;&amp;nbsp;&amp;nbsp;&amp;nbsp;&amp;nbsp;&lt;/span&gt;&lt;span style=&quot;font-size: 9pt; font-family: &amp;quot;Courier New&amp;quot;, monospace; color: rgb(0, 0, 0); background-color: transparent; font-weight: 400; font-style: normal; font-variant: normal; text-decoration: none; vertical-align: baseline; white-space: pre-wrap;&quot;&gt;&lt;span style=&quot;white-space:pre;&quot; class=&quot;Apple-tab-span&quot;&gt;&#x9;&lt;/span&gt;&lt;/span&gt;&lt;span style=&quot;font-size: 9pt; font-family: &amp;quot;Courier New&amp;quot;, monospace; color: rgb(0, 0, 0); background-color: transparent; font-weight: 400; font-style: normal; font-variant: normal; text-decoration: none; vertical-align: baseline; white-space: pre-wrap;&quot;&gt;&quot;search&quot;: [&lt;/span&gt;&lt;/p&gt;&lt;p align=&quot;left&quot; style=&quot;line-height:1.2;margin-top:0pt;margin-bottom:0pt;&quot; dir=&quot;ltr&quot;&gt;&lt;span style=&quot;font-size: 9pt; font-family: &amp;quot;Courier New&amp;quot;, monospace; color: rgb(0, 0, 0); background-color: transparent; font-weight: 400; font-style: normal; font-variant: normal; text-decoration: none; vertical-align: baseline; white-space: pre-wrap;&quot;&gt;&amp;nbsp;&amp;nbsp;&amp;nbsp;&amp;nbsp;&amp;nbsp;&amp;nbsp;&amp;nbsp;&amp;nbsp;&amp;nbsp;&amp;nbsp;&amp;nbsp;&amp;nbsp;&lt;/span&gt;&lt;span style=&quot;font-size: 9pt; font-family: &amp;quot;Courier New&amp;quot;, monospace; color: rgb(0, 0, 0); background-color: transparent; font-weight: 400; font-style: normal; font-variant: normal; text-decoration: none; vertical-align: baseline; white-space: pre-wrap;&quot;&gt;&lt;span style=&quot;white-space:pre;&quot; class=&quot;Apple-tab-span&quot;&gt;&#x9;&lt;/span&gt;&lt;/span&gt;&lt;span style=&quot;font-size: 9pt; font-family: &amp;quot;Courier New&amp;quot;, monospace; color: rgb(0, 0, 0); background-color: transparent; font-weight: 400; font-style: normal; font-variant: normal; text-decoration: none; vertical-align: baseline; white-space: pre-wrap;&quot;&gt;&quot;id&quot;,&lt;/span&gt;&lt;/p&gt;&lt;p align=&quot;left&quot; style=&quot;line-height:1.2;margin-top:0pt;margin-bottom:0pt;&quot; dir=&quot;ltr&quot;&gt;&lt;span style=&quot;font-size: 9pt; font-family: &amp;quot;Courier New&amp;quot;, monospace; color: rgb(0, 0, 0); background-color: transparent; font-weight: 400; font-style: normal; font-variant: normal; text-decoration: none; vertical-align: baseline; white-space: pre-wrap;&quot;&gt;&amp;nbsp;&amp;nbsp;&amp;nbsp;&amp;nbsp;&amp;nbsp;&amp;nbsp;&amp;nbsp;&amp;nbsp;&amp;nbsp;&amp;nbsp;&amp;nbsp;&amp;nbsp;&lt;/span&gt;&lt;span style=&quot;font-size: 9pt; font-family: &amp;quot;Courier New&amp;quot;, monospace; color: rgb(0, 0, 0); background-color: transparent; font-weight: 400; font-style: normal; font-variant: normal; text-decoration: none; vertical-align: baseline; white-space: pre-wrap;&quot;&gt;&lt;span style=&quot;white-space:pre;&quot; class=&quot;Apple-tab-span&quot;&gt;&#x9;&lt;/span&gt;&lt;/span&gt;&lt;span style=&quot;font-size: 9pt; font-family: &amp;quot;Courier New&amp;quot;, monospace; color: rgb(0, 0, 0); background-color: transparent; font-weight: 400; font-style: normal; font-variant: normal; text-decoration: none; vertical-align: baseline; white-space: pre-wrap;&quot;&gt;&quot;label&quot;&lt;/span&gt;&lt;/p&gt;&lt;p align=&quot;left&quot; style=&quot;line-height:1.2;margin-top:0pt;margin-bottom:0pt;&quot; dir=&quot;ltr&quot;&gt;&lt;span style=&quot;font-size: 9pt; font-family: &amp;quot;Courier New&amp;quot;, monospace; color: rgb(0, 0, 0); background-color: transparent; font-weight: 400; font-style: normal; font-variant: normal; text-decoration: none; vertical-align: baseline; white-space: pre-wrap;&quot;&gt;&amp;nbsp;&amp;nbsp;&amp;nbsp;&amp;nbsp;&amp;nbsp;&amp;nbsp;&amp;nbsp;&amp;nbsp;&lt;/span&gt;&lt;span style=&quot;font-size: 9pt; font-family: &amp;quot;Courier New&amp;quot;, monospace; color: rgb(0, 0, 0); background-color: transparent; font-weight: 400; font-style: normal; font-variant: normal; text-decoration: none; vertical-align: baseline; white-space: pre-wrap;&quot;&gt;&lt;span style=&quot;white-space:pre;&quot; class=&quot;Apple-tab-span&quot;&gt;&#x9;&lt;/span&gt;&lt;/span&gt;&lt;span style=&quot;font-size: 9pt; font-family: &amp;quot;Courier New&amp;quot;, monospace; color: rgb(0, 0, 0); background-color: transparent; font-weight: 400; font-style: normal; font-variant: normal; text-decoration: none; vertical-align: baseline; white-space: pre-wrap;&quot;&gt;],&lt;/span&gt;&lt;/p&gt;&lt;p align=&quot;left&quot; style=&quot;line-height:1.2;margin-top:0pt;margin-bottom:0pt;&quot; dir=&quot;ltr&quot;&gt;&lt;span id=&quot;docs-internal-guid-1ec75008-7fff-a55a-397a-1c43f6a054c6&quot; style=&quot;font-size:9pt;font-family:&#39;Courier New&#39;,monospace;color:#000000;background-color:transparent;font-weight:400;font-style:normal;font-variant:normal;text-decoration:none;vertical-align:baseline;white-space:pre;white-space:pre-wrap;&quot;&gt;&amp;nbsp;&amp;nbsp;&amp;nbsp;&amp;nbsp;&amp;nbsp;&amp;nbsp;&amp;nbsp;&amp;nbsp;&lt;/span&gt;&lt;span style=&quot;font-size:9pt;font-family:&#39;Courier New&#39;,monospace;color:#000000;background-color:transparent;font-weight:400;font-style:normal;font-variant:normal;text-decoration:none;vertical-align:baseline;white-space:pre;white-space:pre-wrap;&quot;&gt;&lt;span style=&quot;white-space:pre;&quot; class=&quot;Apple-tab-span&quot;&gt;&#x9;&lt;/span&gt;&lt;/span&gt;&lt;font face=&quot;Courier New, monospace&quot;&gt;&quot;color&quot;: &lt;/font&gt;&lt;span style=&quot;font-size:9pt;font-family:&#39;Courier New&#39;,monospace;color:#a31515;background-color:transparent;font-weight:400;font-style:normal;font-variant:normal;text-decoration:none;vertical-align:baseline;white-space:pre;white-space:pre-wrap;&quot;&gt;&quot;#ADB2D4&quot;&lt;/span&gt;&lt;/p&gt;&lt;p align=&quot;left&quot; style=&quot;line-height:1.2;margin-top:0pt;margin-bottom:0pt;&quot; dir=&quot;ltr&quot;&gt;&lt;span style=&quot;font-size: 9pt; font-family: &amp;quot;Courier New&amp;quot;, monospace; color: rgb(0, 0, 0); background-color: transparent; font-weight: 400; font-style: normal; font-variant: normal; text-decoration: none; vertical-align: baseline; white-space: pre-wrap;&quot;&gt;&amp;nbsp;&amp;nbsp;&amp;nbsp;&amp;nbsp;&lt;/span&gt;&lt;span style=&quot;font-size: 9pt; font-family: &amp;quot;Courier New&amp;quot;, monospace; color: rgb(0, 0, 0); background-color: transparent; font-weight: 400; font-style: normal; font-variant: normal; text-decoration: none; vertical-align: baseline; white-space: pre-wrap;&quot;&gt;&lt;span style=&quot;white-space:pre;&quot; class=&quot;Apple-tab-span&quot;&gt;&#x9;&lt;/span&gt;&lt;/span&gt;&lt;span style=&quot;font-size: 9pt; font-family: &amp;quot;Courier New&amp;quot;, monospace; color: rgb(0, 0, 0); background-color: transparent; font-weight: 400; font-style: normal; font-variant: normal; text-decoration: none; vertical-align: baseline; white-space: pre-wrap;&quot;&gt;}&lt;/span&gt;&lt;/p&gt;&lt;p align=&quot;left&quot; style=&quot;line-height:1.2;margin-top:0pt;margin-bottom:0pt;&quot; dir=&quot;ltr&quot;&gt;&lt;span style=&quot;font-size: 9pt; font-family: &amp;quot;Courier New&amp;quot;, monospace; color: rgb(0, 0, 0); background-color: transparent; font-weight: 400; font-style: normal; font-variant: normal; text-decoration: none; vertical-align: baseline; white-space: pre-wrap;&quot;&gt;]&lt;/span&gt;&lt;/p&gt;" style="rounded=1;whiteSpace=wrap;html=1;absoluteArcSize=1;strokeWidth=2;" parent="1" vertex="1">
          <mxGeometry x="120" y="80" width="320" height="440" as="geometry" />
        </mxCell>
        <mxCell id="7oALAdZeU_FU_1aG247g-6" value="" style="edgeStyle=orthogonalEdgeStyle;rounded=0;orthogonalLoop=1;jettySize=auto;html=1;entryX=0;entryY=0.5;entryDx=0;entryDy=0;exitX=1;exitY=0.5;exitDx=0;exitDy=0;" edge="1" parent="1" source="vIwmV1KeTdYrx_ldE85M-3" target="7oALAdZeU_FU_1aG247g-3">
          <mxGeometry relative="1" as="geometry">
            <mxPoint x="620" y="124" as="sourcePoint" />
            <mxPoint x="620" y="127.5" as="targetPoint" />
          </mxGeometry>
        </mxCell>
        <mxCell id="vIwmV1KeTdYrx_ldE85M-3" value="&lt;p align=&quot;left&quot; style=&quot;line-height:1.2;margin-top:0pt;margin-bottom:0pt;&quot; dir=&quot;ltr&quot;&gt;&lt;span style=&quot;font-size: 9pt; font-family: &amp;quot;Courier New&amp;quot;, monospace; color: rgb(0, 0, 0); background-color: transparent; font-weight: 400; font-style: normal; font-variant: normal; text-decoration: none; vertical-align: baseline; white-space: pre-wrap;&quot;&gt;&quot;search&quot;: [&lt;/span&gt;&lt;/p&gt;&lt;p align=&quot;left&quot; style=&quot;line-height:1.2;margin-top:0pt;margin-bottom:0pt;&quot; dir=&quot;ltr&quot;&gt;&lt;span style=&quot;white-space: pre;&quot;&gt;&#x9;&lt;/span&gt;&lt;span style=&quot;font-size: 9pt; font-family: &amp;quot;Courier New&amp;quot;, monospace; color: rgb(0, 0, 0); background-color: transparent; font-weight: 400; font-style: normal; font-variant: normal; text-decoration: none; vertical-align: baseline; white-space: pre-wrap;&quot;&gt;&quot;id&quot;,&lt;/span&gt;&lt;/p&gt;&lt;p align=&quot;left&quot; style=&quot;line-height:1.2;margin-top:0pt;margin-bottom:0pt;&quot; dir=&quot;ltr&quot;&gt;&lt;span style=&quot;white-space: pre;&quot;&gt;&#x9;&lt;/span&gt;&lt;span style=&quot;font-size: 9pt; font-family: &amp;quot;Courier New&amp;quot;, monospace; color: rgb(0, 0, 0); background-color: transparent; font-weight: 400; font-style: normal; font-variant: normal; text-decoration: none; vertical-align: baseline; white-space: pre-wrap;&quot;&gt;&quot;label&quot;&lt;/span&gt;&lt;/p&gt;&lt;p align=&quot;left&quot; style=&quot;line-height:1.2;margin-top:0pt;margin-bottom:0pt;&quot; dir=&quot;ltr&quot;&gt;&lt;span style=&quot;font-size: 9pt; font-family: &amp;quot;Courier New&amp;quot;, monospace; color: rgb(0, 0, 0); background-color: transparent; font-weight: 400; font-style: normal; font-variant: normal; text-decoration: none; vertical-align: baseline; white-space: pre-wrap;&quot;&gt;]&lt;/span&gt;&lt;/p&gt;" style="rounded=1;whiteSpace=wrap;html=1;absoluteArcSize=1;strokeWidth=2;strokeColor=#C3ABD0;expand=1;resizable=1;" parent="1" vertex="1">
          <mxGeometry x="490" y="90" width="120" height="70" as="geometry" />
        </mxCell>
        <mxCell id="vIwmV1KeTdYrx_ldE85M-4" value="" style="rounded=1;whiteSpace=wrap;html=1;absoluteArcSize=1;strokeWidth=2;fillColor=none;strokeColor=#C3ABD0;" parent="1" vertex="1">
          <mxGeometry x="200" y="404" width="120" height="60" as="geometry" />
        </mxCell>
        <mxCell id="vIwmV1KeTdYrx_ldE85M-12" value="" style="edgeStyle=orthogonalEdgeStyle;rounded=0;orthogonalLoop=1;jettySize=auto;html=1;entryX=0;entryY=0.5;entryDx=0;entryDy=0;" parent="1" source="vIwmV1KeTdYrx_ldE85M-7" edge="1" target="7oALAdZeU_FU_1aG247g-9">
          <mxGeometry relative="1" as="geometry">
            <mxPoint x="490" y="180" as="targetPoint" />
            <Array as="points">
              <mxPoint x="480" y="472" />
              <mxPoint x="480" y="235" />
            </Array>
          </mxGeometry>
        </mxCell>
        <mxCell id="vIwmV1KeTdYrx_ldE85M-7" value="" style="rounded=1;whiteSpace=wrap;html=1;absoluteArcSize=1;strokeWidth=2;fillColor=none;strokeColor=#2F75B6;" parent="1" vertex="1">
          <mxGeometry x="200" y="464" width="150" height="16" as="geometry" />
        </mxCell>
        <mxCell id="vIwmV1KeTdYrx_ldE85M-9" value="&lt;font face=&quot;Courier New, monospace&quot;&gt;&quot;color&quot;: &lt;/font&gt;&lt;span style=&quot;font-size: 9pt; font-family: &amp;quot;Courier New&amp;quot;, monospace; color: rgb(163, 21, 21); background-color: transparent; font-weight: 400; font-style: normal; font-variant: normal; text-decoration: none; vertical-align: baseline; white-space: pre-wrap;&quot;&gt;&quot;#ADB2D4&quot;&lt;/span&gt;" style="rounded=1;whiteSpace=wrap;html=1;absoluteArcSize=1;strokeWidth=2;fillColor=none;strokeColor=#2F75B6;" parent="1" vertex="1">
          <mxGeometry x="545" y="197" width="150" height="16" as="geometry" />
        </mxCell>
        <mxCell id="vIwmV1KeTdYrx_ldE85M-13" value="" style="rounded=1;whiteSpace=wrap;html=1;absoluteArcSize=1;strokeWidth=2;fillColor=none;strokeColor=#2F75B6;" parent="1" vertex="1">
          <mxGeometry x="200" y="210" width="230" height="180" as="geometry" />
        </mxCell>
        <mxCell id="vIwmV1KeTdYrx_ldE85M-14" value="&lt;blockquote&gt;&lt;font face=&quot;Courier New, monospace&quot;&gt;&quot;display&quot;: [&lt;br&gt;&lt;span style=&quot;white-space: pre;&quot;&gt;&#x9;&lt;/span&gt;{&lt;br&gt;&lt;span style=&quot;white-space: pre;&quot;&gt;&#x9;&lt;/span&gt;&lt;span style=&quot;white-space: pre;&quot;&gt;&#x9;&lt;/span&gt;&quot;label&quot;: &quot;label&quot;,&lt;br&gt;&lt;span style=&quot;white-space: pre;&quot;&gt;&#x9;&lt;/span&gt;&lt;span style=&quot;white-space: pre;&quot;&gt;&#x9;&lt;/span&gt;&quot;text&quot;: &quot;${label}&quot;,&lt;br&gt;&lt;span style=&quot;white-space: pre;&quot;&gt;&#x9;&lt;/span&gt;&lt;span style=&quot;white-space: pre;&quot;&gt;&#x9;&lt;/span&gt;&quot;type&quot;: &quot;text&quot;&lt;br&gt;&lt;span style=&quot;white-space: pre;&quot;&gt;&#x9;&lt;/span&gt;},&lt;br&gt;&lt;span style=&quot;white-space: pre;&quot;&gt;&#x9;&lt;/span&gt;{&lt;br&gt;&lt;span style=&quot;white-space: pre;&quot;&gt;&#x9;&lt;/span&gt;&lt;span style=&quot;white-space: pre;&quot;&gt;&#x9;&lt;/span&gt;&quot;label&quot;: &quot;Authors ID&quot;,&lt;br&gt;&lt;span style=&quot;white-space: pre;&quot;&gt;&#x9;&lt;/span&gt;&lt;span style=&quot;white-space: pre;&quot;&gt;&#x9;&lt;/span&gt;&quot;text&quot;: &quot;${id}&quot;,&lt;br&gt;&lt;span style=&quot;white-space: pre;&quot;&gt;&#x9;&lt;/span&gt;&lt;span style=&quot;white-space: pre;&quot;&gt;&#x9;&lt;/span&gt;&quot;type&quot;: &quot;text&quot;&lt;br&gt;&lt;span style=&quot;white-space: pre;&quot;&gt;&#x9;&lt;/span&gt;}&lt;br&gt;],&lt;/font&gt;&lt;/blockquote&gt;" style="rounded=1;whiteSpace=wrap;html=1;absoluteArcSize=1;strokeWidth=2;fillColor=none;strokeColor=#2F75B6;align=left;verticalAlign=top;" parent="1" vertex="1">
          <mxGeometry x="490" y="300" width="490" height="220" as="geometry" />
        </mxCell>
        <mxCell id="vIwmV1KeTdYrx_ldE85M-6" value="" style="endArrow=classic;html=1;rounded=0;entryX=0;entryY=0.5;entryDx=0;entryDy=0;" parent="1" target="vIwmV1KeTdYrx_ldE85M-3" edge="1">
          <mxGeometry width="50" height="50" relative="1" as="geometry">
            <mxPoint x="320" y="450" as="sourcePoint" />
            <mxPoint x="470" y="120" as="targetPoint" />
            <Array as="points">
              <mxPoint x="470" y="450" />
              <mxPoint x="470" y="280" />
              <mxPoint x="470" y="125" />
            </Array>
          </mxGeometry>
        </mxCell>
        <mxCell id="7oALAdZeU_FU_1aG247g-3" value="" style="rounded=1;whiteSpace=wrap;html=1;absoluteArcSize=1;strokeWidth=2;strokeColor=#C3ABD0;expand=1;resizable=1;fillColor=none;" vertex="1" parent="1">
          <mxGeometry x="650" y="92.5" width="130" height="65" as="geometry" />
        </mxCell>
        <mxCell id="7oALAdZeU_FU_1aG247g-4" value="" style="shape=image;verticalLabelPosition=bottom;labelBackgroundColor=default;verticalAlign=top;aspect=fixed;imageAspect=0;image=data:image/png,iVBORw0KGgoAAAANSUhEUgAAAdAAAAEICAYAAADvMKVCAAAMTGlDQ1BJQ0MgUHJvZmlsZQAASImVVwdYU8kWnltSIQQIREBK6E0QkRJASggtgPQiiEpIAoQSY0JQsaOLCq5dRLCiqyCKHRCxYVcWxe5aFgsqK+tiwa68CQF02Ve+N983d/77z5l/zjl35t47ANDb+VJpDqoJQK4kTxYT7M8al5TMInUCFGgAChgJ3PgCuZQTFRUOYBlo/17e3QSIsr3moNT6Z/9/LVpCkVwAABIFcZpQLsiF+CAAeJNAKssDgCiFvPnUPKkSr4ZYRwYdhLhKiTNUuEmJ01T4Sp9NXAwX4icAkNX5fFkGABrdkGflCzKgDh1GC5wkQrEEYj+IfXJzJwshnguxDbSBc9KV+uy0H3Qy/qaZNqjJ52cMYlUsfYUcIJZLc/jT/890/O+Sm6MYmMMaVvVMWUiMMmaYtyfZk8OUWB3iD5K0iEiItQFAcbGwz16JmZmKkHiVPWojkHNhzgAT4jHynFhePx8j5AeEQWwIcbokJyK836YwXRyktIH5Q8vEebw4iPUgrhLJA2P7bU7IJscMzHszXcbl9PPP+bI+H5T63xTZ8RyVPqadKeL162OOBZlxiRBTIQ7IFydEQKwBcYQ8Ozas3yalIJMbMWAjU8QoY7GAWCaSBPur9LHSdFlQTL/9zlz5QOzYiUwxL6IfX83LjAtR5Qp7IuD3+Q9jwbpFEk78gI5IPi58IBahKCBQFTtOFkniY1U8rifN849RjcXtpDlR/fa4vygnWMmbQRwnz48dGJufBxenSh8vkuZFxan8xMuz+KFRKn/wvSAccEEAYAEFrGlgMsgC4tau+i54p+oJAnwgAxlABBz6mYERiX09EniNBQXgT4hEQD44zr+vVwTyIf91CKvkxIOc6uoA0vv7lCrZ4CnEuSAM5MB7RZ+SZNCDBPAEMuJ/eMSHVQBjyIFV2f/v+QH2O8OBTHg/oxiYkUUfsCQGEgOIIcQgoi1ugPvgXng4vPrB6oyzcY+BOL7bE54S2giPCDcI7YQ7k8SFsiFejgXtUD+oPz9pP+YHt4Karrg/7g3VoTLOxA2AA+4C5+HgvnBmV8hy+/1WZoU1RPtvEfzwhPrtKE4UlDKM4kexGTpSw07DdVBFmesf86PyNW0w39zBnqHzc3/IvhC2YUMtsUXYAewcdhK7gDVh9YCFHccasBbsqBIPrrgnfStuYLaYPn+yoc7QNfP9ySozKXeqcep0+qLqyxNNy1NuRu5k6XSZOCMzj8WBXwwRiycROI5gOTs5uwKg/P6oXm9vovu+Kwiz5Ts3/3cAvI/39vYe+c6FHgdgnzt8JRz+ztmw4adFDYDzhwUKWb6Kw5UXAnxz0OHu0wfGwBzYwHicgRvwAn4gEISCSBAHksBE6H0mXOcyMBXMBPNAESgBy8EaUA42ga2gCuwG+0E9aAInwVlwCVwBN8BduHo6wAvQDd6BzwiCkBAawkD0ERPEErFHnBE24oMEIuFIDJKEpCIZiARRIDOR+UgJshIpR7Yg1cg+5DByErmAtCF3kIdIJ/Ia+YRiqDqqgxqhVuhIlI1y0DA0Dp2AZqBT0AJ0AboULUMr0V1oHXoSvYTeQNvRF2gPBjA1jImZYg4YG+NikVgylo7JsNlYMVaKVWK1WCN8ztewdqwL+4gTcQbOwh3gCg7B43EBPgWfjS/By/EqvA4/jV/DH+Ld+DcCjWBIsCd4EniEcYQMwlRCEaGUsJ1wiHAG7qUOwjsikcgkWhPd4V5MImYRZxCXEDcQ9xBPENuIj4k9JBJJn2RP8iZFkvikPFIRaR1pF+k46Sqpg/SBrEY2ITuTg8jJZAm5kFxK3kk+Rr5Kfkb+TNGkWFI8KZEUIWU6ZRllG6WRcpnSQflM1aJaU72pcdQs6jxqGbWWeoZ6j/pGTU3NTM1DLVpNrDZXrUxtr9p5tYdqH9W11e3Uueop6gr1peo71E+o31F/Q6PRrGh+tGRaHm0prZp2ivaA9kGDoeGowdMQaszRqNCo07iq8ZJOoVvSOfSJ9AJ6Kf0A/TK9S5OiaaXJ1eRrztas0DyseUuzR4uhNUorUitXa4nWTq0LWs+1SdpW2oHaQu0F2lu1T2k/ZmAMcwaXIWDMZ2xjnGF06BB1rHV4Olk6JTq7dVp1unW1dV10E3Sn6VboHtVtZ2JMKyaPmcNcxtzPvMn8NMxoGGeYaNjiYbXDrg57rzdcz09PpFest0fvht4nfZZ+oH62/gr9ev37BriBnUG0wVSDjQZnDLqG6wz3Gi4YXjx8//DfDFFDO8MYwxmGWw1bDHuMjI2CjaRG64xOGXUZM439jLOMVxsfM+40YZj4mIhNVpscN/mDpcvisHJYZazTrG5TQ9MQU4XpFtNW089m1mbxZoVme8zum1PN2ebp5qvNm827LUwsxlrMtKix+M2SYsm2zLRca3nO8r2VtVWi1UKreqvn1nrWPOsC6xrrezY0G1+bKTaVNtdtibZs22zbDbZX7FA7V7tMuwq7y/aovZu92H6DfdsIwgiPEZIRlSNuOag7cBzyHWocHjoyHcMdCx3rHV+OtBiZPHLFyHMjvzm5OuU4bXO6O0p7VOiowlGNo1472zkLnCucr4+mjQ4aPWd0w+hXLvYuIpeNLrddGa5jXRe6Nrt+dXN3k7nVunW6W7inuq93v8XWYUexl7DPexA8/D3meDR5fPR088zz3O/5l5eDV7bXTq/nY6zHiMZsG/PY28yb773Fu92H5ZPqs9mn3dfUl+9b6fvIz9xP6Lfd7xnHlpPF2cV56e/kL/M/5P+e68mdxT0RgAUEBxQHtAZqB8YHlgc+CDILygiqCeoOdg2eEXwihBASFrIi5BbPiCfgVfO6Q91DZ4WeDlMPiw0rD3sUbhcuC28ci44NHbtq7L0IywhJRH0kiORFroq8H2UdNSXqSDQxOiq6IvppzKiYmTHnYhmxk2J3xr6L849bFnc33iZeEd+cQE9ISahOeJ8YkLgysX3cyHGzxl1KMkgSJzUkk5ITkrcn94wPHL9mfEeKa0pRys0J1hOmTbgw0WBizsSjk+iT+JMOpBJSE1N3pn7hR/Ir+T1pvLT1ad0CrmCt4IXQT7ha2CnyFq0UPUv3Tl+Z/jzDO2NVRmemb2ZpZpeYKy4Xv8oKydqU9T47MntHdm9OYs6eXHJuau5hibYkW3J6svHkaZPbpPbSImn7FM8pa6Z0y8Jk2+WIfIK8IU8H/ui3KGwUPyke5vvkV+R/mJow9cA0rWmSaS3T7aYvnv6sIKjglxn4DMGM5pmmM+fNfDiLM2vLbGR22uzmOeZzFszpmBs8t2oedV72vF8LnQpXFr6dnzi/cYHRgrkLHv8U/FNNkUaRrOjWQq+Fmxbhi8SLWhePXrxu8bdiYfHFEqeS0pIvSwRLLv486ueyn3uXpi9tXea2bONy4nLJ8psrfFdUrdRaWbDy8aqxq+pWs1YXr367ZtKaC6UupZvWUtcq1raXhZc1rLNYt3zdl/LM8hsV/hV71huuX7z+/Qbhhqsb/TbWbjLaVLLp02bx5ttbgrfUVVpVlm4lbs3f+nRbwrZzv7B/qd5usL1k+9cdkh3tVTFVp6vdq6t3Gu5cVoPWKGo6d6XsurI7YHdDrUPtlj3MPSV7wV7F3j/2pe67uT9sf/MB9oHag5YH1x9iHCquQ+qm13XXZ9a3NyQ1tB0OPdzc6NV46IjjkR1Npk0VR3WPLjtGPbbgWO/xguM9J6Qnuk5mnHzcPKn57qlxp66fjj7deibszPmzQWdPneOcO37e+3zTBc8Lhy+yL9ZfcrtU1+LacuhX118Ptbq11l12v9xwxeNKY9uYtmNXfa+evBZw7ex13vVLNyJutN2Mv3n7Vsqt9tvC28/v5Nx59Vv+b5/vzr1HuFd8X/N+6QPDB5W/2/6+p92t/ejDgIctj2If3X0sePziifzJl44FT2lPS5+ZPKt+7vy8qTOo88of4//oeCF98bmr6E+tP9e/tHl58C+/v1q6x3V3vJK96n295I3+mx1vXd4290T1PHiX++7z++IP+h+qPrI/nvuU+OnZ56lfSF/Kvtp+bfwW9u1eb25vr5Qv4/f9CmBAebRJB+D1DgBoSQAw4LmROl51PuwriOpM24fAf8KqM2RfcQOgFv7TR3fBv5tbAOzdBoAV1KenABBFAyDOA6CjRw/WgbNc37lTWYjwbLA56mtabhr4N0V1Jv3B76EtUKq6gKHtvwBrXYMyn9YgfAAAAIplWElmTU0AKgAAAAgABAEaAAUAAAABAAAAPgEbAAUAAAABAAAARgEoAAMAAAABAAIAAIdpAAQAAAABAAAATgAAAAAAAACQAAAAAQAAAJAAAAABAAOShgAHAAAAEgAAAHigAgAEAAAAAQAAAdCgAwAEAAAAAQAAAQgAAAAAQVNDSUkAAABTY3JlZW5zaG90cKFRmwAAAAlwSFlzAAAWJQAAFiUBSVIk8AAAAdZpVFh0WE1MOmNvbS5hZG9iZS54bXAAAAAAADx4OnhtcG1ldGEgeG1sbnM6eD0iYWRvYmU6bnM6bWV0YS8iIHg6eG1wdGs9IlhNUCBDb3JlIDYuMC4wIj4KICAgPHJkZjpSREYgeG1sbnM6cmRmPSJodHRwOi8vd3d3LnczLm9yZy8xOTk5LzAyLzIyLXJkZi1zeW50YXgtbnMjIj4KICAgICAgPHJkZjpEZXNjcmlwdGlvbiByZGY6YWJvdXQ9IiIKICAgICAgICAgICAgeG1sbnM6ZXhpZj0iaHR0cDovL25zLmFkb2JlLmNvbS9leGlmLzEuMC8iPgogICAgICAgICA8ZXhpZjpQaXhlbFlEaW1lbnNpb24+MjY0PC9leGlmOlBpeGVsWURpbWVuc2lvbj4KICAgICAgICAgPGV4aWY6UGl4ZWxYRGltZW5zaW9uPjQ2NDwvZXhpZjpQaXhlbFhEaW1lbnNpb24+CiAgICAgICAgIDxleGlmOlVzZXJDb21tZW50PlNjcmVlbnNob3Q8L2V4aWY6VXNlckNvbW1lbnQ+CiAgICAgIDwvcmRmOkRlc2NyaXB0aW9uPgogICA8L3JkZjpSREY+CjwveDp4bXBtZXRhPgqmSt57AAAAHGlET1QAAAACAAAAAAAAAIQAAAAoAAAAhAAAAIQAABE+H+4imAAAEQpJREFUeAHs3XmMFEUbx/FnOBd2OSTe4BUFxTveGs8/NDER0Xgf8Y5Bo2iM0ajxvm+MiRqJR2K872gUNFF5MSrsq4kB9+V+gZdDTnFh2Zt5+6n3re6enp6emtnd3tnh2wl0dVV19cxnSH50T3dNZtbSlVlhQQABBBBAAIGSBDIEaEledEYAAQQQQMAIZOasWpsdM3K4jBwyGBIEEEAAAQQQKCCwqblVVmxqlK1t7aZHJustBfpSjQACCCCAAAIRgbmr15kQJUAjMGwigAACCCCQJKBnogvWbhACNEmJNgQQQAABBGIEZi9bRYDGuFCFAAIIIIBAogABmshDIwIIIIAAAvECBGi8C7UIIIAAAggkChCgiTw0IoAAAgggEC9AgMa7UIsAAggggECiAAGayEMjAggggAAC8QIEaLwLtQgggAACCCQKEKCJPDQigAACCCAQL0CAxrtQiwACCCCAQKIAAZrIQyMCCCCAAALxAgRovAu1CCCAAAIIJAoQoIk8NCKAAAIIIBAvQIDGu1CLAAIIIIBAogABmshDIwIIIIAAAvECBGi8C7UIIIAAAggkChCgiTw0IoAAAgggEC9AgMa7UIsAAggggECiAAGayEMjAggggAAC8QIEaLwLtQgggAACCCQKEKCJPDQigAACCCAQL0CAxrtQiwACCCCAQKIAAZrIQyMCCCCAAALxAgRovAu1CCCAAAIIJAoQoIk8NCKAAAIIIBAvQIDGu1CLAAIIIIBAokBqAdra2irbtm0zL2bQoEHSv3//xBdWTmNnZ6e0tbWZXTOZjNTU1JQzTI/s09HRIe3t7WbsAQMGyMCBA3vkOAyKAAIIIJCOQGoBOnHiRJkzZ455V4888ohceuml3f4Ov//+e7n22mvNuDvttJPMmjWr249R7oCPP/64TJ061ew+YcIEeeGFF8odiv0QQAABBCpAgABN6UMgQFOC5jAIIIBASgIEaErQBGhK0BwGAQQQSEmAAE0JmgBNCZrDIIAAAikJEKApQROgKUFzGAQQQCAlAQI0JWgCNCVoDoMAAgikJFCxAbp69Wpz1+7SpUtl3333lcMOO0x23HHHRJaku3B//fVXWbBggWzcuFF22WUX2WuvveTII4+Ufv36JY4Zbdy8ebPU19fLypUrZcuWLbLrrrua13fooYdGu+ZsE6A5HGwggAACZQl8++23Zr/TTz+9rP27c6eKC9CvvvpKHnzwQVm3bl3e+9x9993l4osvlptuuimvTSviAvSPP/6QW2+9VRYvXpy3z5577ik33nijXHjhhXlt0Yq//vpLnn32Wfnss89k69at0WbZf//95Y477pDTTjstr00rCNBYFioRQAABZwENz3CA9naIVkyAtrS0yMMPPyzvvvtuUczrrrtO7r777rx+0QB95ZVX5Oqrr5bGxsa8vuEKDdBHH3204OQO8+bNk+uvv15WrFgR3i2vrBMkvPrqq3LqqafmtRGgeSRUIIAAAs4C4fC0O2mA9maIVkyA6sQCdnIBnUXolFNOMX8OP/xwWbhwoflfh/2fh+Ldcsst5o+F1HU4QAcPHmwCUc8WR44cKSeccIKcdNJJZqaimTNnys8//yxNTU3+7nomevvtt/vbtqDhe+aZZ4peUtZlhx12kLPPPluOPfZYGTNmjCxZskTeeecdmT17tmnX2Y/efPNNOeaYY8y2/YsAtRKsEUAAgdIE4sLTjtCbIVoRAapT/Gm42ZA6//zz5amnnrI+Zp3NZs2l26+//tps77fffvLNN9/k9AkHqG046KCD5L333pPa2lpbZdYbNmyQ8847T5YvX262dWrBTz/9VA4++OCcfnfeead8+OGHpm7UqFEmLMeNG5fTRzeeeeYZeemll0x9XV2dzJgxw4St7UiAWgnWCCCAgLtAUnjaUXorRCsiQHXKPfu9pgadBpme6UUXvYR68sknm2o9S/3tt99kxIgRfrdogOoZ4scffyw6rV/csmzZMhOiemORLhdddJH5rtL21ZuEjj76aNF5fHX54osvRAM5btF5eM8991yZO3euaX7ggQfkiiuu8LsSoD4FBQQQQMBJwCU87UC9EaIVEaAWoNhaz0L1bld76fX111/P+b4xGqD333+/XHnllYnDPv/88/Liiy+aPsOGDTOhbCe61xuGbrvtNtOmNzD9+OOPiWPpODqeLvo9qL4+uxCgVoI1AgggUFyglPC0o6UdohUXoBqOixYt8v+sX7/e2pi1otqbgqKT0kcD9JNPPhH9DjVp+eGHH+Saa67xu/z000/m0RStCIerbhcLY33kRi/d6qKXeadNm2bK+hcB6lNQQAABBBIFyglPO2CaIVpRAfrWW2+Zu2HtT5JZkELrpADVnwvTX3/Rn05LWvTxFH0e1C7h0A1//2nbXdc777yz/PLLL353AtSnoIAAAggUFOhKeNpB0wrRighQ/Y5Rn9WcPn26ff/me8t99tlH9NJpeLIDPauzz2EmBahehv39999l6NCh/phxhbVr18pxxx3nN33++edyyCGHmO277rpL3n//fb/tjDPO8MvFCnrD0WOPPeZ3I0B9CgoIIIBArEB3hKcdOI0Q1QAV77vFHl+8Rz+yXiCaP2+//XbO8d544w2/bezYsVnvTDSn3W54P0id9S6N+n2j43z33Xd+mx7Le7TE7lpw7YV2zj5r1qzx+06ZMsVv836/1K8vp+CFqT/W5MmTyxmCfRBAAAEEKkhg1tKV2V4P0Msvv9wPF+8HsQvyeGeUfj8NyGIB6k1qUHAs2/DEE0/4Y3p33Ga9u2ltU/bLL7/027zHW3La/E6OBQLUEYpuCCCAQB8R0ADN6Gu1p709tZ44caL5TlLHj156nTBhguiUe7pcdtllZkYisxH5S2cg8s4y/droONGbiPRRmI8++kj0UnDcot+RXnLJJf4lYZ216N577/W76uxI+hiLvev3ySeflAsuuMBvDxd06sGbb75ZdB9d9PLtgQce6HfhEq5PQQEBBBCoCoGKuITrhZZ/puc955n1JmzP+//Hyy+/7PcpdCk4eglX++l4q1atyhvPm90o69085I95wAEHZL35cvP6eVP8+X28yRuyesk3ung3PWW9SRn8ft7zpNEuWc5A80ioQAABBPq0QEWcgerNQzfccIP/PxL99RU9E9W1PhqiZ536eIjeGKSTtjc0NJi+SWegw4cPF53cQM8e9SYknWHoxBNPNFP56fOc8+fP10vX/jHvuece8S4f+9u2oDc46dmz/pKLLjrfrU7Tp2PZO211vD///NO067E++OADOeKII8y2/YszUCvBGgEEEKgOgYq4C1eDTCeS1zlkkxadq1YD0TsbNd2SAlRDTufLveqqq8S7+ajgsDqjkXdTj/mj5bhFpxicNGmSfwk6ro/W6c+teTcemXl3o30I0KgI2wgggEDfFqiIALWE+uspOm+tnZ/W1u+xxx7mMRedKk9D9qGHHjJNSQF6zjnnyHPPPWcmZHj66af9n8CxY+r6+OOPN8Go8/AWW/TZ1Ndee028G5fEuySc010fWdFHYe677z5zVprT+P8NAjROhToEEECg7wqkFqClEOnkBnqDT3Nzs/nFk/Hjx+c8C1rKWLbvpk2bzC+n6A9h65ni3nvvLbvttpttdl7rxPc6U5KOo6Gql4ZHjx7tvD8dEUAAAQSqQ6AiA7Q6aHkXCCCAAALVLECAVvOny3tDAAEEEOgxAQK0x2gZGAEEEECgmgUI0Gr+dHlvCCCAAAI9JkCA9hgtAyOAAAIIVLNAtwVoeFKCagbjvSGAAAIIVIdAoWf/Xd9dSQFKSLqy0g8BBBBAoC8LuIRrXoASkn35I+e1I4AAAgj0tIANVxOg3uQAwaSwPX1kxkcAAQQQQKAKBAjQKvgQeQsIIIAAAukLEKDpm3NEBBBAAIEqECBAq+BD5C0ggAACCKQvUHKAcpNR+h8SR0QAAQQQSE/A3iRU7IgFA5SgLEZHOwIIIIDA9iQQDdacACU0t6d/CrxXBBBAAIFyBTRMTYB2dnZ262MsBHG5Hwn7IYAAAgj0pED0LLIrxyo5QAnHrnCzLwIIIIBApQu4hmzBACUoK/0j5vUhgAACCKQpEA1WP0C7Ephd2TfNN8+xEEAAAQQQCAtEQzHcVqxcv3y1ZDo6OhK/AyUgizHSjgACCCBQjQJJAVu/bFV+gPZkYPbk2NX44fGeEEAAAQRKE0gKvdJGyu8dHtsP0FKCrZS++YenBgEEEEAAgcoUCAdksVf4T72E297eHnsJt5ygLGefYi+SdgQQQAABBLpLoJSQtMeM26d+uXcJNxygSQGY1GYPwhoBBBBAAIG+LhAXmPY92TYToG1tbV06AyVYLStrBBBAAIG+JGDDsNhrjuuXF6DRMLTbdl3sINH2cveLjsM2AggggAAC5QjEhZ/LOHY/u7b72G0ToC0tLXlnoIWCr1C9HZg1AggggAACfVnABmT0PYTrNzW3ysJ1GyVjAzQuHOPq7KBJbbYPawQQQAABBCpdIByO0dca19awZoNsbWuXzD///Z/s6BHDZOSQwWa/uGCMq4seRLdd+8XtSx0CCCCAAAI9LRAXiHHHjOv3d0ubrPx7szR74alLZub8JV7u5V7FjW7bwQvV2/bwOiu5Y4bbKCOAAAIIIJCWQEYyzoeKC07dOVqv25l/zFvsJ100IHU7NggjgevyyqJju+xDHwQQQAABBEoViIad0/5eIEYXDd7oWOHtzIx/LcoJ0LzALBCW3R2IBQ4TfT9sI4AAAghs5wIxWdclkXAo5gwUOVA4UEcNHSKZOUtXZJu867nNHf+7pmt2jkmzQoEZ7lqoT84LYgMBBBBAAIFeEgiHZSQf/VcU7hOqlJr+A6R20ECpGzRYBmb6SWbt+r+zdbVDZNCgAdK/X/4prL8zBQQQQAABBLZzgc5tWWlr65AtTc2S8c4a/Uu427kLbx8BBBBAAAFnAQLUmYqOCCCAAAIIBAIEaGBBCQEEEEAAAWcBAtSZio4IIIAAAggEAgRoYEEJAQQQQAABZwEC1JmKjggggAACCAQCBGhgQQkBBBBAAAFnAQLUmYqOCCCAAAIIBAIEaGBBCQEEEEAAAWcBAtSZio4IIIAAAggEAgRoYEEJAQQQQAABZwEC1JmKjggggAACCAQCBGhgQQkBBBBAAAFnAQLUmYqOCCCAAAIIBAIEaGBBCQEEEEAAAWcBAtSZio4IIIAAAggEAgRoYEEJAQQQQAABZwEC1JmKjggggAACCAQCBGhgQQkBBBBAAAFnAQLUmYqOCCCAAAIIBAIEaGBBCQEEEEAAAWcBAtSZio4IIIAAAggEAgRoYEEJAQQQQAABZwEC1JmKjggggAACCAQCBGhgQQkBBBBAAAFnAQLUmYqOCCCAAAIIBAIEaGBBCQEEEEAAAWcBAtSZio4IIIAAAggEAgRoYEEJAQQQQAABZwEC1JmKjggggAACCAQCBGhgQQkBBBBAAAFnAQLUmYqOCCCAAAIIBAIEaGBBCQEEEEAAAWcBAtSZio4IIIAAAggEAgRoYEEJAQQQQAABZwEC1JmKjggggAACCAQCBGhgQQkBBBBAAAFnAQLUmYqOCCCAAAIIBAK9GqBNTU2SzWalrq4ueEVdKDU3N/t719TUSCaT8bcpIIAAAggg0J0CvRagU6dOlSlTppgAnTx5skyaNKlL76u1tVXGjx/vjzF9+nQZO3asv00BAQQQQACB7hTolQDt6OiQo446ShobG817qa2tlfr6etGzxnIXArRcOfZDAAEEEChHoFcCVF/oWWedJQ0NDeY1jxs3TqZNm1bO6/f3IUB9CgoIIIAAAikI/BcAAP//LLor4wAAEVBJREFU7d17lE/lHsfx77iU3MJilFuiRHJJuYROrFX/VIfcRqOmFEqSOOjkVqcIq2jlSCm0VgdH5BJ1RJx0MHKpQRycaqxcosXkfokxnOe7s/faM7+fH5M97b3b72ctZv/2fuaZ53k9f3zWb1+enXTOFPGhbN26VSZPnixnz56V7t27S926dS+rF6dOnZI6deo4bSxevFhuvPFG5zMbCCCAAAIIeCmQ5FeAejkIbYsA9VqU9hBAAAEEEgkQoIl0OIYAAggggMAFBHwL0IMHD8rx48etbpUoUULKli17gS7+ujs7O1vWrl0rO3fulCNHjki9evWkYcOGUrx4casC30AT8nEQAQQQQMBjAd8CdNiwYTJ9+nRrOJ07d5ZRo0bFHVpOTo689dZbMnXqVMnKyspVp3DhwlaQjhs3TpKTk7kGmkuHDwgggAACBSkQ6AA9dOiQ9OrVS1avXp3QoGLFijJp0iRp06aNU4+biBwKNhBAAAEECkAg0AHarVs3WbZsmTPscuXKScuWLa1/ehp35cqVsmbNGjl58qSUKlVKjh496tQlQB0KNhBAAAEECkAgsAE6b9486d+/vzPkRo0aybRp06RYsWLOPt3YtWuXdOzYUfbv359rPwGai4MPCCCAAAIeCwQ2QDUUMzIyrOHecMMNMmvWLClTpkzc4W/ZskX0Oqp9U5JWIkDjUrETAQQQQMAjgUAG6N69e6VFixbOEMeMGSPt27d3PsfbcN+UpMcJ0HhK7EMAAQQQ8EogkAGanp4uaWlpzhiXLl0qNWrUcD7H25gzZ44MHDjQOUSAOhRsIIAAAggUgEAgA3Tu3LkyYMAAa7ilS5eW9evXS1JSUsLhb9++Xe6++26nDgHqULCBAAIIIFAAAoEM0AULFkjfvn2t4epCCRs3bhR95jNR2bZtm9x7771OFQLUoWADAQQQQKAABAIZoPpoSmpqqjPchQsXSu3atZ3P8TZmzJghQ4YMcQ4RoA4FGwgggAACBSAQyAA9cOCANG3aVHQVIi0jR46UBx98MOHwn3vuOZk9e7ZThwB1KNhAAAEEECgAgUAGqI6za9eusnz5cmvIutKQhmPlypXjEuhNR4899picOXPGOU6AOhRsIIAAAggUgEBgA1TDU0PULnoXrp6mrVChgr3L+rlhwwbrjl33M6B6gADNxcQHBBBAAAGPBQIboDrOQYMGycyZM50h641EDRo0cJbyW7FihWRmZlrHq1WrZq1KZL8fnAB12NhAAAEEECgAgUAHqL7CbPDgwaLPeCYq5cuXt07xpqSkyL59+6yqBGgiMY4hgAACCFyuQKAD1B7c/Pnzrbet6JJ97qLfSDU0dc1cXWjevfwfAeqWYhsBBBBAwGsB3wL0twxkx44d1gu1Dx8+LNWrV5eaNWvKVVdd9Vua4ncQQAABBBC4LIFQBehljZRfRgABBBBAwEMBAtRDTJpCAAEEEIiOAAEanblmpAgggAACHgoQoB5i0hQCCCCAQHQECNDozDUjRQABBBDwUIAA9RCTphBAAAEEoiNAgEZnrhkpAggggICHAgSoh5g0hQACCCAQHQECNDpzzUgRQAABBDwUIEA9xKQpBBBAAIHoCBCg0ZlrRooAAggg4KEAAeohJk0hgAACCERHgACNzlwzUgQQQAABDwUIUA8xaQoBBBBAIDoCBGh05pqRIoAAAgh4KECAeohJUwgggAAC0REgQKMz14wUAQQQQMBDAQLUQ0yaQgABBBCIjgABGp25ZqQIIIAAAh4KEKAeYtIUAggggEB0BAjQ6Mw1I0UAAQQQ8FCAAPUQk6YQQAABBKIjQIBGZ64ZKQIIIICAhwIEqIeYNIUAAgggEB2BpOycnHPRGS4jRQABBBBAwBsBAtQbR1pBAAEEEIiYAAEasQlnuAgggAAC3ggQoN440goCCCCAQMQECNCITTjDRQABBBDwRoAA9caRVhBAAAEEIiZAgEZswhkuAggggIA3AgSoN460ggACCCAQMQECNGITznARQAABBLwRIEC9caQVBBBAAIGICRCgEZtwhosAAggg4I0AAeqNI60ggAACCERMgACN2IQzXAQQQAABbwQIUG8caQUBBBBAIGICBGjEJpzhIoAAAgh4I0CAeuNIKwgggAACERMgQCM24QwXAQQQQMAbAQLUG0daQQABBBCImAABGrEJZ7gIIIAAAt4IEKDeONIKAggggEDEBAjQiE04w0UAAQQQ8EaAAPXGkVYQQAABBCImQIBGbMIZLgIIIICANwK+BeipU6fk7Nmz1iiuuOIKKVy4sDcjcrWSk5Mjp0+ftvYkJSVJsWLFXEf93Txz5oxkZ2dbnShSpIgULVrU3w7x1xFAAAEE8iXgW4C2b9dONm3aZHX25eHDJTU1NV8dv5TKy5Ytkyd69LCqVihfXlatXn0pv/a71Bk9erRMmTzZ+lv33X+/vPHGG7/L3+WPIIAAAgh4I0CAeuOY71YI0HyT8QsIIIBAoAQIUJ+mgwD1CZ4/iwACCHgkQIB6BJnfZgjQ/IpRHwEEEAiWAAHq03wQoD7B82cRQAABjwQIUI8g89sMAZpfMeojgAACwRIITYDu2btX/rt5s/zwww9So0YNqd+ggeidtYlKortwv/76a/nuu+/kwIEDkpycLNddd53cdtttUqhQoURNxhw7cvSofLVunezZs0eOme1rrr321/7Vrx9T172DAHVrsI0AAgiETyDwAfrpp5/K8Jdekv1ZWTG6lSpVkpTOneXpp5+OOaY74gXoli1bpF/fvrJ9+/aY36lWrZr07NlTOqWkxBzLu+PgoUPy+tixsuCjj+TEyZN5D8tNN90k/QcMkNatW8cc0x0EaFwWdiKAAAKhEQhsgP7yyy8yYsQImfnBBxfF7Natmzw/aFBMvbwBOmHiROn++ONy5MiRmLruHZ06dZLh5m9faHGHbdu2yVNPPim7f/zR/Wsx20XNAglvv/OO3HXXXTHHCNAYEnYggAACoRIIbID+fdw4GT9+vIWpqwhpCN35pz9JA3PqVk+9/nvpUllq/tmlT58+8oz55y7uAL3yyiuliFnt6PiJE1Lm6qvljubNpeWdd1orFa1csUJWm0UWjh8/7vx6z6eekv79+zuf7Y3DJnz/fN99stecUtZStkwZub9NG2nSpIlUqVpVtmdmygczZsg6c1pXi65+NOW996zj1o7z/xGgbg22EUAAgfAJBDJAdYm/ViYw7ZDq0LGjdcrTzXvu3Dnp88wzsmjRImt3zZo1ZdHixe4quU7h2gduvvlmmW4CrmSJEvYu62fWzz9LZ/PNc+fOndbnwuZa6Ox58+SWunVz1Rv0/PMye/Zsa1+5cuVk6rRpUqtWrVx19MNYc3p34ttvW/tLliwpn3/xhRW2dkUC1JbgJwIIIBBOgUAG6Jq1a+VZE45aSpig+3DOHClXtmyM8O7du6V1q1bWfv2Wuvarr6xvl3ZF9zdQ3VelcmWZZcKvQoUKdpVcP3fs2CEpJkT1xiItKeZa6CsjRzp1jh47Jnc0bSq6jq+W+QsWiAZyvKLr8Hbs0EE2mxuftLzw4ouSlpbmVCVAHQo2EEAAgVAKBDJAL1VSv4Xe2rChc+p1kllbttX5QNU28gbosBdekEceeSRh87om7YQ337TqlCpVStaZULavhX40f74MPH9aV29g+s/y5QnbetO0M+78GrfaL+2fXQhQW4KfCCCAQDgFAh+gx8x1yczvv5dMc23xe/MzK8/duHot1L4pKO+i9HkD9EPz7bOhCdxE5QtzqrVH9+5OleUrV8q111xjfXaHq+5Iu0gY7zCP3Cw/H7J6mvdfCxc67RKgDgUbCCCAQCgFAh2g08z1xVHmFKr9SrKLCScKUH1d2IaNG0VfnZao6OMpTW6/3aniDl339U+nwiVuJJvTxulffunUJkAdCjYQQACBUAoEMkD1GmO/fv1kyWefOai6aEL1668XPXXqXuzgM3PjkN5ZqyVRgOpNQRkbNkjx4sWdNuNt7Nu3T1qYO3TtMtfcSFSvXj3r45DBg2XWrFn2Ibnnnnuc7Ytt6A1HI155xalGgDoUbCCAAAKhFAhkgL7//vsywrwjVIs+Szlk6FB56OGHY4D1pdT1TbjZL6ZOFKD6y/80d982btw4ph33jiVLlkgv8wiLXdJXrbJWKtLP7kdrmjVrZt2Ba9fL708CNL9i1EcAAQSCJRDIAH3UXFtcZYJLi67k8+6kSXHVvvnmG+nQvr1z7GIB+lfzCEp31/VN5xddG6+++qpMevdda095861XA9T+xrvQXMN89vyzpnp3cMb69c4xVxOXtEmAXhITlRBAAIHACgQyQNuahQl0yT0tXbp0kZdefjku4BM9elh32toHLxagZc2jMDPNKdjrzangeGXTpk2S9tBDzinhR7t2laHm269ddHWkZuYxFnvBhZGjRomuWhSv7N+/3wpb+5EXPX1bp04dpyoB6lCwgQACCIRSIJAB+jfzzOT06dMt0KpVqsj8Tz6RUmYxAnd5xyyRN+a119y7El4DtStqe9PMqdxKZtF3d9G7fLukpjrPgOrKRQs+/thaGN5db7QJzSlTpli79Lrq+AkTYq6F6inlh00QZ2RkWPX0tLGePnYXAtStwTYCCCAQPoFABuhic2NQb9cC8fr2lS4mkHS1IX0by7LPP7ceD9EAq2UWbd+6dasln+gbaOnSpUUXN9Bvj4XMogu3mGunzVu0kOzTpyXdPKryv2+/FX2u1C6DzA1Dj5t1c/MW/UbZvl07+dbU16LXaBubZfyamxuPkitWtJYEXJWeLj/99JN1XP/WDPOtt9Gtt1qf7f8IUFuCnwgggEA4BQIZoBpkupD8P8zNRInKX8yiBidMIE40i8RrSRSg+i1Q18rtZkLRvukoXtu6olHv3r2turodr+ir1Xr36iV6yjdR0WuoY19/3QrXvPUI0LwifEYAAQTCJRDIALUJ9TStvo1l165d9i7rp56G7WNeSfbAAw+I+47dRAHatm1bGWPWp9VTtXrq170Qvd243ln7pHmdWcuWLe1dF/ypz6a+Z07lzjCnZvVdoO6ij6w0NddKhw4b5tzB6z6u2wRoXhE+I4AAAuES8C1A88OkixtsNt/2TpjnPauaN57Url37N9/9av/dQ6bNTPNO0D3mlWS6Nm4180LtvNdF7bqJfurC97pC0o+mHf1mW9csPl/ZrLlLQQABBBD4YwuEIkD/2FPA6BBAAAEEwihAgIZx1ugzAggggIDvAgSo71NABxBAAAEEwihAgIZx1ugzAggggIDvAgSo71NABxBAAAEEwihAgIZx1ugzAggggIDvAgSo71NABxBAAAEEwihAgIZx1ugzAggggIDvAgSo71NABxBAAAEEwihAgIZx1ugzAggggIDvAgSo71NABxBAAAEEwihAgIZx1ugzAggggIDvAgSo71NABxBAAAEEwihAgIZx1ugzAggggIDvAgSo71NABxBAAAEEwihAgIZx1ugzAggggIDvAgSo71NABxBAAAEEwihAgIZx1ugzAggggIDvAgSo71NABxBAAAEEwihAgIZx1ugzAggggIDvAgSo71NABxBAAAEEwihAgIZx1ugzAggggIDvAgSo71NABxBAAAEEwihAgIZx1ugzAggggIDvAknnTPG9F3QAAQQQQACBkAkQoCGbMLqLAAIIIBAMAQI0GPNALxBAAAEEQiZAgIZswuguAggggEAwBAjQYMwDvUAAAQQQCJkAARqyCaO7CCCAAALBECBAgzEP9AIBBBBAIGQCBGjIJozuIoAAAggEQ4AADcY80AsEEEAAgZAJEKAhmzC6iwACCCAQDAECNBjzQC8QQAABBEImQICGbMLoLgIIIIBAMAQI0GDMA71AAAEEEAiZAAEasgmjuwgggAACwRAgQIMxD/QCAQQQQCBkAv8HYxHk5WVW0icAAAAASUVORK5CYII=;" vertex="1" parent="1">
          <mxGeometry x="662.28" y="95" width="105.45" height="60" as="geometry" />
        </mxCell>
        <mxCell id="7oALAdZeU_FU_1aG247g-10" value="" style="rounded=1;whiteSpace=wrap;html=1;absoluteArcSize=1;strokeWidth=2;fillColor=none;strokeColor=#2F75B6;" vertex="1" parent="1">
          <mxGeometry x="572.9499999999999" y="223" width="94.09" height="50" as="geometry" />
        </mxCell>
        <mxCell id="7oALAdZeU_FU_1aG247g-11" value="label" style="ellipse;whiteSpace=wrap;html=1;aspect=fixed;fillColor=#ADB2D4;strokeColor=none;" vertex="1" parent="1">
          <mxGeometry x="601.5" y="229.5" width="37" height="37" as="geometry" />
        </mxCell>
        <mxCell id="7oALAdZeU_FU_1aG247g-12" value="" style="rounded=1;whiteSpace=wrap;html=1;absoluteArcSize=1;strokeWidth=2;fillColor=none;strokeColor=#2F75B6;align=left;verticalAlign=top;" vertex="1" parent="1">
          <mxGeometry x="500" y="310" width="250" height="200" as="geometry" />
        </mxCell>
        <mxCell id="7oALAdZeU_FU_1aG247g-14" value="" style="edgeStyle=orthogonalEdgeStyle;rounded=0;orthogonalLoop=1;jettySize=auto;html=1;endArrow=none;startFill=0;" edge="1" parent="1" source="7oALAdZeU_FU_1aG247g-13" target="7oALAdZeU_FU_1aG247g-12">
          <mxGeometry relative="1" as="geometry" />
        </mxCell>
        <mxCell id="7oALAdZeU_FU_1aG247g-15" value="" style="edgeStyle=orthogonalEdgeStyle;rounded=0;orthogonalLoop=1;jettySize=auto;html=1;strokeColor=default;startArrow=classic;startFill=1;endArrow=none;exitX=0;exitY=0.5;exitDx=0;exitDy=0;" edge="1" parent="1" source="7oALAdZeU_FU_1aG247g-13" target="7oALAdZeU_FU_1aG247g-12">
          <mxGeometry relative="1" as="geometry" />
        </mxCell>
        <mxCell id="7oALAdZeU_FU_1aG247g-13" value="" style="shape=image;verticalLabelPosition=bottom;labelBackgroundColor=default;verticalAlign=top;aspect=fixed;imageAspect=0;image=data:image/png,iVBORw0KGgoAAAANSUhEUgAAASIAAACeCAYAAACWwQcMAAABYGlDQ1BJQ0MgUHJvZmlsZQAAKJFtkM1LAlEUxc+UYZiLgmhV4C4KCxuLqEVgFhUIDfZpbRxH01KnxzghrWrXPqL+g2jT2o1UuyAIgqCgVYs2rQM3JdMZrdTqPi73x+Ge9+67QJNbFSLjAJDVTSM8M+lZjax5nK9wQIIbrRhXtZwIKEqILfiujVF6YC/jfsC+K3q7fhHN9xzuzacvl8+vpb/9DeGKJ3Ia6wdT1oRhApKPrORNYfM+udPgUOQjm5NVPrM5VuVipWcxHCTfkdu1lBonP5O9sTo9WcfZzI72NYM9ozuhLy2wdjG7MYVphHg8UCBjFEMYwyx39L9nuOIJYhsCuzCwiSRSMOkOUBHIIEGegw4Ng/CSZfiYI/auf++wpsUPAH8/n3LVtK0XoHgCdNzUtN40vzMBXEWEaqg/m5VKjtyGX65yWwFoObastxXA2QeUHy3rvWBZ5VOg+Yne0icRbmLGZDijZAAAAFZlWElmTU0AKgAAAAgAAYdpAAQAAAABAAAAGgAAAAAAA5KGAAcAAAASAAAARKACAAQAAAABAAABIqADAAQAAAABAAAAngAAAABBU0NJSQAAAFNjcmVlbnNob3TQ3WJEAAAB1mlUWHRYTUw6Y29tLmFkb2JlLnhtcAAAAAAAPHg6eG1wbWV0YSB4bWxuczp4PSJhZG9iZTpuczptZXRhLyIgeDp4bXB0az0iWE1QIENvcmUgNi4wLjAiPgogICA8cmRmOlJERiB4bWxuczpyZGY9Imh0dHA6Ly93d3cudzMub3JnLzE5OTkvMDIvMjItcmRmLXN5bnRheC1ucyMiPgogICAgICA8cmRmOkRlc2NyaXB0aW9uIHJkZjphYm91dD0iIgogICAgICAgICAgICB4bWxuczpleGlmPSJodHRwOi8vbnMuYWRvYmUuY29tL2V4aWYvMS4wLyI+CiAgICAgICAgIDxleGlmOlBpeGVsWURpbWVuc2lvbj4xNTg8L2V4aWY6UGl4ZWxZRGltZW5zaW9uPgogICAgICAgICA8ZXhpZjpQaXhlbFhEaW1lbnNpb24+MjkwPC9leGlmOlBpeGVsWERpbWVuc2lvbj4KICAgICAgICAgPGV4aWY6VXNlckNvbW1lbnQ+U2NyZWVuc2hvdDwvZXhpZjpVc2VyQ29tbWVudD4KICAgICAgPC9yZGY6RGVzY3JpcHRpb24+CiAgIDwvcmRmOlJERj4KPC94OnhtcG1ldGE+CnMigPYAABpKSURBVHgB7Z0HlBPV98ffUgQBkSYgCh47VjqC0qwIoiAKiIpiV7B3sGIBu2JBUbCAHRURqRaKBTw0AVGsIEVEKUrv/P2883/5TbJJJtnN7GyW7z0Hksx70z7JfOfe+2bvy9n5nxmZCIiACIRIoFiI+9auRUAERMASkBDphyACIhA6AQlR6F+BDkAEREBCpN+ACIhA6AQkRKF/BToAERABCZF+AyIgAqETKJHXI9Cof17JaT0R2HUI5OTkpHSyaQuRE6DY15T2pk4iIAK7BIFYAYr9HAshLSHyis+2bdsMn3fs2GG36dpid6DPIiACuw4BJzjFihUzvC9RooR9RR9cWzwaOf91SOnJatcN4dm6davdaMmSJQ07lImACIiAl4DTCXTDqxOJxCgtFWGjiBA7KVWqlETIS17vRUAEIgRwUNAIryBFGuO8SVmIECHCMYSodOnScTalRSIgAiIQTQCtQDNcKie69X+fUhIiF5bxunnzZnlC/+OndyIgAkkI4BmhGV4Nidc9JSFiRTaEm4WyyURABEQgVQJoBtrhxCjeeikLkVtZQuRI6FUERCAVAqloRlpChKIlU7VUDkp9REAEdi0CqehGWkK0a+HT2YqACBQUAQlRQZHWfkRABBISkBAlRKMGERCBgiIgISoo0tqPCIhAQgISooRo1CACIlBQBCREBUVa+xEBEUhIQEKUEI0aREAECoqAhKigSGs/IiACCQlIiBKiUYMIiEBBEZAQFRRp7UcERCAhAQlRQjRqEAERKCgCEqKCIq39iIAIJCQgIUqIRg0iIAIFRUBCVFCki/B+1q9fb1avXl2Ez1CnFjSBUISoZ8+eZr/99jNff/11Suf3wQcf2P59+vRJqX+8Tunu0/XnOA8++GDTqlUrc+WVV5pff/013ubzvOzdd9+15zZixIiUtvHggw+aQw89NGlfjpXj9v5r27Zt3HWGDh0a1a9x48bmpptuMjNmzIjb37vwlVdeMaeddpo56qijTIMGDUybNm3MQw89ZLZv3x7pdsYZZ5iuXbtGPuf1zWOPPWaPM6/ra73CTSCt6YQK96lk/ujKli1rbrzxRsMd/4cffjDTpk0zp556qr3YzjrrrIzssEKFCuaQQw4xvGbKbrnlligP5YUXXvDdNCK71157mUWLFpmPPvrIjBkzxnzxxRemcuXKcdcdMmSIuffee039+vXNrbfeanbffXfz2WefGfa1ceNGk5+bRtwdamGRJiAhSvL1MgvBpZdeGunx999/m86dO9uL7MQTT8yIeJxyyimGf5k0vBSvvfPOO1FeirfNvUdYEUTsoIMOMnfddZeZO3eu9QRdH/eKKCNCxx13nHnjjTci81VdeOGF5s477zSvvfaaOeGEE0zLli3dKnoVgaQEQgnN4h0R4Ve7du3MEUccYerWrWsIjVasWBHVddOmTeaqq64yRx55pOHCmTJlSlQ7oV779u3N4YcfbhCKN998M6rd+2Hq1KnmkUcesXdx7/Jk7/EYHn30UfPvv/8aLm5nL7/8svWUateubS/Ol156yTWZQYMGmWOPPdaMHTvWNG/e3BxzzDHm4Ycftl4WnaZPn27bZ82aFVnn7bffNieffLJl0bFjR/P9999H2griDcXOsf333z/u7r788ksrbE8++WREhFzHu+++23D+nGs84ztE5Fq0aGHghYc5efLkSFe+98svv9xug3APdhs2bIi0uzfjx4+3bYRszsLm5o5Dr+kTKBRCRAhwww032PzLAQccYH/kH3/8sbnuuuuizghh4QdIIW4uYH6wv//+u+3z3XffGe7I3K35ga9atcr06tXLfPjhh1HbcB+++eYb89xzz6UlRKxLPqR48eKRXBHHdP/991tv4tprrzXVqlUzDzzwgA1t6P/PP/+YpUuXWi+KfAlex4ABA8x7771Hsw1jaOcCxQiLbrvtNtuPEIsJ6Tp16hQVatmOGf4Pz+aZZ56xzPr372/OPPPMhDkZPKVKlSrZc409jN12282KaKKJNzmn999/33pMl112mRVkvsdly5bZTS1fvtx88skn9rtp0qSJvTmVKVMmajczZ84011xzjT0+fjdYWNyiDkwf8kygUIRm3D3vuece6+Xsueee9uLkbojH4+7OnCFzJOHJlC9f3nDRI1Z4JuQouLi3bNliSL5yt125cqUNDV588UXToUOHXIBIQOM14YGlY4RrVatWteLCeuecc44VjYYNG9rNXHzxxaZevXpm3LhxNnnrto0oIkQYXhGCinDG2vPPP2/DIUQSI9FL/9dff91efLH9M/X51VdfjdoUdYYRx3hz2CH+NWrUiOqf6ge+5+uvv94ceOCBdhU8HhhyMyLsxbjRDB8+PK5H9ttvv5mLLrrIrj948GB7U2CdsLixb1n+CRQKIeI0KlasaEdr1qxZY8+KBDFGXsYZd076YdxNEaJ58+bZz3hEeCr8OPmHrV27NuK52AWe/xhFSjSS5OmW6y3C+Ndff9mwgEbu/CR433rrrUi4RSjhPW76cXd3RmiJ5xZrXPw///yzvfjJtTiDxU8//eQ+BvI6atQoOzrI+TGCR/iE4N5xxx259kfINnHixFzLU1mAdzNs2DB7/tw43AwPeELO8BoThYXnnXee9TK5uThPKUxu7pj1mj8ChSI0w63mLknuYd26dZELOvbUGMVy5t67/AEjNdxJCXPcP7yemjVr2uVuvfy+IngMT7sLBU+M8ADhIVzhX7ywhIvaWTwvgzZ3YcIAj879O+mkk8zRRx/tVk/4yvokivEavcZ28CKTGSEV3h79unXrZg477DBD+BrPCE95bmjJkiW5mvGiCIeZ3TOeMTr31FNP2e/E8Yrt5wQmdjmfudmQV8LzdWKeX27x9qNlBUsgVI8I4cAmTZpkX0keE77ww0JEYg3BuuKKK2zeZPTo0bbZjfTUqlXLeip4Eq1atbJt5B3I2XiFwe2TuyjvaSMPk4px17755pvtnZi8DUY+gyFshrMxRIp8S17MhX0M5RNqOONYUznGkiVL2kQ44SZeB0bCH2FOZ2SOc+Bc9913X3cIUa/NmjUzJUqUsI82kCD28mU0jXCZYf/YhDXb5WaDN0uoiiF23sQ/y5KdK5wRMMSWXBq/ifxyY5+ycAmEIkTVq1e3Z83oEZ6NExPyOX/88Uck0RuLhjCMoWl+5F999ZW9O7q8C3dxEtjkjvAgcPnJw3AHxtuK3ScjNU888YTB1e/bt2/sruxnwhRGvRgl+/HHH+32ST4Ttrjt8dAgI2KIKaLHNvNj5EtIGvfu3du0bt3ahmRcfHg6JPK5CDkuvA6GyL2eDhcw3gJthFR16tQxPHSIF8G2khkJZEYFCY0nTJhgvTFyMfGMBypJ0CMmjOqxbZ4jQpT5XnjkwYkQogo7+DCcv/fee9uw7vTTT7eeL2KSjsEAIy8II9hccMEFNs+UjFs6+1DfgicQihAx9M5w/Zw5c+ydl6Qtw9cIByMyTZs2tTmV2BCDH/wvv/xih3urVKlik7ckcjFyBoRH/Bi5qDBGz3hSGIvdp13o8x+5GS44whYuIDwfwjBvgpuLceHChaZ79+7WM+DxAW8+yGcXuZoZKUT4eOIaz4q7PRetEz6EmOFx+vHQIY8qeI3jRUxIbvOPnBpeCkyTmXvokf1x/P369bMXd6J1zj33XCuIHCePNODtEHKy3Hk7rHv22WcbRsoY5eL7fvzxx+2NgfPgJkQbN6R0jRuI2ze5Pj9u6W5f/QuWQM5/bv9Ov126MIY7MfkG8i75NX64JH25wJ2xffIjiZ7mdf0QHO7eiezPP/+0F7BLbLt+8fbp2vL7imjheSTK/6S7fZjDBw+IkMtrnAeeWTJOiBFhmfMgvOtn+r3bF7+L2GNlX+TxOB+X12MZOSZGSL1hHcvza8m45XfbWj9vBBYvXmx/q9zkEqVCQhOivJ2S1hIBEcg2AqkIUaEYNcs2sDpeERCBzBKQEGWWp7YmAiKQBwISojxA0yoiIAKZJSAhyixPbU0ERCAPBCREeYCmVURABDJLQEKUWZ7amgiIQB4ISIjyAE2riIAIZJaAhCizPLU1ERCBPBCQEOUBmlYRARHILAEJUWZ5amsiIAJ5ICAhygO0wrSKq8eU6Jio05SoNpBbh78VS2YUmONvuGQiEBSB0IWIvzCnlIa3CHq6J8scXN6/1KdmkCvPke62Mtmf8qccB3+RjrnPLOMff81PbWjKn7g6Sansnz965a/sKVDGX99TGpfKBV6jmoErwE+fLl26RE1GwP4oo0HBNbZDqVuKjXmNKozM1EFFSSoOUHqDfctEINMEQhciV8CLGsV5MWbQoMQHNW+yxfgrdAq/UW2AQvBMmsjkhK6Avt95MHsGdZIodkbJDcqUMPuFKydLhQRqXVNgjnbmZqMEBzOgOKPAP+VtEStuApRMoaicmxmF6ovU36bGEvtDMCm7kZeSHW6fehWBRARCqUfkDoZC6N9++639yA+folrcgdMxSn5kW9jAdEluqqP58+fbQmK8UlQNL8XPqDOEgFDbB0PEKERG8TGKzMGRkIyKl65eE2U3EG3CNEp1UBiuUaNGkW1Q8wjPBy+I2kVMloj3QylcaiG5aY3w6mQikGkCoXpEhGWICBcBxh3aa7fffru9wFxtYtoIc7jo8CYINwYOHGhXYT4tQhSvIXRsm9ADryB2umiKqFFUi/CEaoTeaZYJddgPF/PVV19tQyDK1GIUJqOwF+tRGTJe7WbvcSR7jyfiRMmFRoSZieZcQ2AI67yF/ymTS51nRBmjaiXn7kSIZUyvVK5cuUi9oE8//TSKN8XYEB4KzmGu1hGF6JzRx1sR0i3Xqwjkl0BoHhE5CmaLIKwgNCEkoNQoBcZcAS0uLGbIQHSccdGzDAHzFqSn3Vtkjc+EERRHI0ShaiPFxPAKMMrDImIUMmM7n3/+uS0FS6iIOFCgjf24aX1YhzwKHhxhDeJGbWyO2ZUspU9eDCFBAChkRp1tN+caVQiZ8shrlGSFm9fwpkhau5K7tFGkDaNsLJUcmXySSopeow9F5shRjRw50lCLGmHFKLdLDovKioSAhH3UvubcZSKQaQKheUS4/lwEhGJU6qPWMjkSV+Y1lRPFo3Feyn333ZerCDvCgcBxEVLs3YUshClcfOQ/aCPcQLQYPYpXc5oC7XhLlLR1RfsJjbiwOV5voftUjjteH8QIY86wdOdcI4eDp0KIFmuEYPxDuF0OydsH8UOsEH3El5rhGCz4zHqII++5eVA1UiYCmSYQmhAx+wPmJj8k4Yy55LX9EOe/dEaXCNXwIAgzmM8doWN2CjwOLjDu9C4EIcyjlOXs2bOj9kpoRxF6PBa8NwrW40kgWCxHBFxIFLVimh/wvjC8OsIuPDc8Ij8jgUzxfjyXeGETx8kUSEwgQE4J0fEa0wZNmzbNihVic8kll9hmRsjwRCmkT4F6PL/u3bvbmt2Il0wEMkkgFCFiVMdNIUTuhlkhGOXBGN1hkkGvecWHPEWq5g1VvHNlccFhiJQzZsBAiGKfy2EWCq9RWJ7povGIMHJJFIj3ho/e/qm8R4S4uBG6dOqB46mRR2NEi8knnSHm3uF8hJOZNajzjXdE/oiw1MsSj+z888+3bYg1HiDhmbfuN/k5vgumBJKJQCYJhCJEXCjuITvu4giCVxTcvGCEbBgXDkbSOvbhOzcHlhMX2/H//3Nt3mW8d0lcQjUncgyjs21GjrwWW9wdrwohZficdehPItibUPeu7/eeKZKYQghjZIr94a2ROOY1kREO4uXgNcWGk8yQgkdDbswZ50aOjEQ3r+TIHGfXZ8GCBTY/h/eHAHkT1fRxj0gQ0spEIJMEQklW41FghB/eZCxJV6YMInHK3GFc5IQSTG3DHXrif0PLsUbIhRGiIDw9evSI7ZLrM14HI2LkhggN8cgIPfAc4s1H790Az+sQrjAyxQwZJHDxZNhGqkbC+/jjj7f5GPfsEB6Jm9756aeftuKCyMTOuYZAMXcb021zDuzXjbpx/qxDOEnui6mNeE9CnhFJzo9cHMxg8Oyzz1rvk+F6wjceC2jXrp3tx/dAHg2x41jJE5G4R6TcFE2pnq/6iYAfgQIXIi5CQi/uuIw6eY3RKi4S7sQIAw/UkWxGgJgNlCFzcjgkdJ1xwZDDIKTjwbxUhIh1Bw8ebIf02TbbxFPggT4u1GRGKIRHwcgV3hQXJhe016NLtj5tjAzi5TFVEEKCGPOwIYLmZ/y5BSKEIaTe53rwphAiF0IRfpFQR4BIgCNGTjAReOZoGzdunJ1jjvNgvT59+thtMxKIgCFyPGxK2FqvXj0rkGxPJgKZJJAV0wnFmxcrFgKjOVw48RK2sX29nxETRtFc0trbluw9z/MQDiabXy3Z+gXVhnAhIolEjvCP0DLZ+ROKkiuTABXUt1a09pPKdEJZIURF62vR2YjArkUgFSEKJVm9a30NOlsREAE/AhIiP0JqFwERCJyAhChwxNqBCIiAHwEJkR8htYuACAROQEIUOGLtQAREwI+AhMiPkNpFQAQCJyAhChyxdiACIuBHQELkR0jtIiACgROQEAWOWDsQARHwIyAh8iOkdhEQgcAJSIgCR6wdiIAI+BGQEPkRUrsIiEDgBCREgSPWDkRABPwISIj8CKldBEQgcAISosARawciIAJ+BCREfoTULgIiEDgBCVHgiLUDERABPwISIj9CahcBEQicgIQocMTagQiIgB8BCZEfIbWLgAgETkBCFDhi7UAERMCPgITIj5DaRUAEAicgIQocsXYgAiLgR0BC5EdI7SIgAoETkBAFjlg7EAER8CMgIfIjpHYREIHACUiIAkesHYiACPgRkBD5EVK7CIhA4AQkRIEj1g5EQAT8CEiI/AipXQREIHACEqLAEWsHIiACfgQkRH6E1C4CIhA4AQlR4Ii1AxEQAT8CEiI/QmoXAREInICEKHDE2oEIiIAfAQmRHyG1i4AIBE5AQhQ4Yu1ABETAj0AJvw5hto8ePdpMnjzZHkLz5s1N27ZtTU5OTpiHpH2LgAgEQKDQCtGIESPM+PHjI6eMKK1fv9507tw5skxvREAEigaBQhuaTZ06NRfh6dOn51qmBSIgAtlPoNAK0Y4dO7Kfrs5ABEQgJQKFVohatGiR6wSaNm2aa5kWiIAIZD+BQpsjIjG9efNmM2HCBEu5WbNmpkOHDtlPXGcgAiKQi0BoQrR27Vozc+ZMe0D169c3e+yxR9TBMTrWsWNHs2DBAru8S5cuUe3ug992XD+9ioAIFF4CoQjRsmXLTP/+/Q0igo0ZM8b07NnT1KxZMy6pnTt3xl2e7nbibkQLRUAEQicQSo5o6NChERGCAII0ZMiQKBhz5swxffv2tR4RXlG/fv3MrFmzovqksp2oFfRBBESgUBIIRYiWL1+eCwbejfOQCNkGDhxoli5dapw3tGTJEjNo0CAzZcoUuy7PFNEeaytXroxdpM8iIAKFnEAooVn16tXNwoULo9AgOL179za1a9c2ixcvjmrzfhg+fLj1jObPn2+2b9/ubbLvq1atmmuZFoiACBRuAqF4RN26dTMVKlSIkClevLjp1KmTad26tcGjcZ5RpIPnDZ7QqlWrTNeuXU2vXr1MpUqVIq3ly5c3bFsmAiKQXQRy/vNE4meCPedBFx4wZDgdoUiUVPas4vsWQSEEW716talbt66pVauWXWfs2LFm5MiRSddv166dadOmje2zdetWM3fuXLNmzRrToEGDXKNvSTekRhEQgcAJEOFUrlzZlCpVyhQrVizu34uGEppx5mXLljX8IWusValSJXZRrs9eb6pkyZKG4X+ZCIhA9hIIJTRLhqtevXpRYVtsX543wvORiYAIFB0ChU6IyBc1bNgwIeFGjRqZ3XbbLWG7GkRABLKPQKETokWLFpmJEyeaffbZx1SrVi1ClPc1atSw9YliR9winfRGBEQgKwmEliPy0nIF0DZs2GBKly5tk1o9evTIFaKR2ObBxgEDBphNmzaZMmXK2DyTCqZ5aeq9CGQfgdA9IgqgjRo1yg7Z81wQo2l16tTJJUKgrVixoh1how99GeZHxIYNG5Z95HXEIiACEQKhC1G8AmgzZsyIHGDsm9mzZ8cuMiqYlguJFohAVhEIXYji0UqWjOY5hFiLtyy2jz6LgAgUXgK5r+oCPtYmTZrk2mPjxo1zLXML0u3v1tOrCIhA4SUQerK6ffv2NkE9adIkm/dp2bJl5KnpeNjS7R9vG1omAiJQuAiE9icehQuDjkYERCAoAqn8iUfooVlQJ6/tioAIZA8BCVH2fFc6UhEosgQkREX2q9WJiUD2EJAQZc93pSMVgSJLQEJUZL9anZgIZA8BCVH2fFc6UhEosgQkREX2q9WJiUD2EJAQZc93pSMVgSJLQEJUZL9anZgIZA8BCVH2fFc6UhEosgQkREX2q9WJiUD2EJAQZc93pSMVgSJLIC0hysnJKbIgdGIiIALBEfDTjrSEiMOkCNmWLVuCO2JtWQREoMgQQCtSKVyYshChaGyQ6olLly4tMqB0IiIgAsERQCvQDLQjmVeUkhC5DfDKRpl+et68eWbjxo3BnYG2LAIikLUE0AY0Aq1AM7waEu+kUiqMxoo7d+60/zZv3mzWrVtnVq5caVasWGFn0sD9ot31s2/0nwiIwC5DwCs0CA8zMjN9PHPelytXzk4RRh/XLxZMWkLEyigcwsO8YggSr9u2bYvdrj6LgAjsogRKlChhyz8jQMxT6EIzcORbiNiI1+vZunWrFSUnQq6NfjIREIFdk4ATGsSIvFDJkiUj4uPa4pFJ2SNyKzvBiX117XoVAREQASc6sa+JyKQ9i4fbsNtg7Ge3XK8iIAIikKo+pC1EDm2qO3D99SoCIiACiQikNHyfaGUtFwEREIFMEJAQZYKitiECIpAvAhKifOHTyiIgApkgICHKBEVtQwREIF8EJET5wqeVRUAEMkFAQpQJitqGCIhAvghIiPKFTyuLgAhkgsD/AaMyIe+Ve6L2AAAAAElFTkSuQmCC;" vertex="1" parent="1">
          <mxGeometry x="800" y="365" width="165.18" height="90" as="geometry" />
        </mxCell>
        <mxCell id="7oALAdZeU_FU_1aG247g-17" value="&lt;font face=&quot;Calibri&quot;&gt;&lt;b&gt;C&lt;/b&gt;&lt;/font&gt;" style="rounded=1;whiteSpace=wrap;html=1;fillColor=#e1d5e7;strokeColor=#9673a6;" vertex="1" parent="1">
          <mxGeometry x="485" y="294" width="20" height="20" as="geometry" />
        </mxCell>
        <mxCell id="7oALAdZeU_FU_1aG247g-18" value="&lt;font face=&quot;Calibri&quot;&gt;&lt;b&gt;B&lt;/b&gt;&lt;/font&gt;" style="rounded=1;whiteSpace=wrap;html=1;fillColor=#e1d5e7;strokeColor=#9673a6;" vertex="1" parent="1">
          <mxGeometry x="494" y="176" width="20" height="20" as="geometry" />
        </mxCell>
        <mxCell id="7oALAdZeU_FU_1aG247g-19" value="&lt;font face=&quot;Calibri&quot;&gt;&lt;b&gt;A&lt;/b&gt;&lt;/font&gt;" style="rounded=1;whiteSpace=wrap;html=1;fillColor=#e1d5e7;strokeColor=#9673a6;" vertex="1" parent="1">
          <mxGeometry x="470" y="75" width="20" height="20" as="geometry" />
        </mxCell>
      </root>
    </mxGraphModel>
  </diagram>
</mxfile>
